<?xml version="1.0" encoding="UTF-8" standalone="no"?>
<!DOCTYPE svg PUBLIC "-//W3C//DTD SVG 1.1//EN"
 "http://www.w3.org/Graphics/SVG/1.1/DTD/svg11.dtd">
<!-- Generated by graphviz version 2.43.0 (0)
 -->
<!-- Title: workflow Pages: 1 -->
<svg width="1237pt" height="404pt"
 viewBox="0.00 0.00 1237.33 404.00" xmlns="http://www.w3.org/2000/svg" xmlns:xlink="http://www.w3.org/1999/xlink">
<g id="graph0" class="graph" transform="scale(1 1) rotate(0) translate(4 400)">
<title>workflow</title>
<polygon fill="white" stroke="transparent" points="-4,4 -4,-400 1233.33,-400 1233.33,4 -4,4"/>
<!-- place_92f9552174fc81f2ab9e6c0c1c06b3e11706a32b -->
<g id="node1" class="node">
<title>place_92f9552174fc81f2ab9e6c0c1c06b3e11706a32b</title>
<ellipse fill="lightblue" stroke="#333333" cx="36" cy="-296" rx="36" ry="36"/>
<text text-anchor="middle" x="36" y="-293.8" font-family="Arial" font-size="9.00">initialized</text>
</g>
<!-- place_2b020927d3c6eb407223a1baa3d6ce3597a3f88d -->
<g id="node2" class="node">
<title>place_2b020927d3c6eb407223a1baa3d6ce3597a3f88d</title>
<ellipse fill="none" stroke="#333333" cx="162" cy="-198" rx="36" ry="36"/>
<text text-anchor="middle" x="162" y="-195.8" font-family="Arial" font-size="9.00">start</text>
</g>
<!-- place_92f9552174fc81f2ab9e6c0c1c06b3e11706a32b&#45;&gt;place_2b020927d3c6eb407223a1baa3d6ce3597a3f88d -->
<g id="edge1" class="edge">
<title>place_92f9552174fc81f2ab9e6c0c1c06b3e11706a32b&#45;&gt;place_2b020927d3c6eb407223a1baa3d6ce3597a3f88d</title>
<path fill="none" stroke="#333333" d="M64.83,-274.01C83.89,-258.94 109.23,-238.92 129.11,-223.2"/>
<polygon fill="#333333" stroke="#333333" points="130.43,-224.39 133.26,-219.92 128.26,-221.65 130.43,-224.39"/>
<text text-anchor="middle" x="99" y="-254.8" font-family="Arial" font-size="9.00">start</text>
</g>
<!-- place_5f5f8758f5f22d523e531f58123b6db9161683a4 -->
<g id="node10" class="node">
<title>place_5f5f8758f5f22d523e531f58123b6db9161683a4</title>
<ellipse fill="none" stroke="#333333" cx="1193.33" cy="-215" rx="36" ry="36"/>
<text text-anchor="middle" x="1193.33" y="-212.8" font-family="Arial" font-size="9.00">failed</text>
</g>
<!-- place_92f9552174fc81f2ab9e6c0c1c06b3e11706a32b&#45;&gt;place_5f5f8758f5f22d523e531f58123b6db9161683a4 -->
<g id="edge2" class="edge">
<title>place_92f9552174fc81f2ab9e6c0c1c06b3e11706a32b&#45;&gt;place_5f5f8758f5f22d523e531f58123b6db9161683a4</title>
<path fill="none" stroke="#333333" d="M58.28,-324.48C80.64,-350.84 118.44,-386 161,-386 161,-386 161,-386 1045.33,-386 1114.73,-386 1158.51,-303.99 1178.87,-253.56"/>
<polygon fill="#333333" stroke="#333333" points="1180.54,-254.08 1180.76,-248.78 1177.29,-252.79 1180.54,-254.08"/>
<text text-anchor="middle" x="606" y="-388.8" font-family="Arial" font-size="9.00">failed</text>
</g>
<!-- place_9567d1547e105470e4e53c1568f07a209e82a161 -->
<g id="node3" class="node">
<title>place_9567d1547e105470e4e53c1568f07a209e82a161</title>
<ellipse fill="none" stroke="#333333" cx="294" cy="-238" rx="36" ry="36"/>
<text text-anchor="middle" x="294" y="-235.8" font-family="Arial" font-size="9.00">dump</text>
</g>
<!-- place_2b020927d3c6eb407223a1baa3d6ce3597a3f88d&#45;&gt;place_9567d1547e105470e4e53c1568f07a209e82a161 -->
<g id="edge3" class="edge">
<title>place_2b020927d3c6eb407223a1baa3d6ce3597a3f88d&#45;&gt;place_9567d1547e105470e4e53c1568f07a209e82a161</title>
<path fill="none" stroke="#333333" d="M196.82,-208.41C214.42,-213.82 236.02,-220.47 254.29,-226.09"/>
<polygon fill="#333333" stroke="#333333" points="254.06,-227.85 259.35,-227.65 255.09,-224.5 254.06,-227.85"/>
<text text-anchor="middle" x="228" y="-223.8" font-family="Arial" font-size="9.00">dump</text>
</g>
<!-- place_bb73aaafa1596e5425dc514a361ad4ef658f2758 -->
<g id="node5" class="node">
<title>place_bb73aaafa1596e5425dc514a361ad4ef658f2758</title>
<ellipse fill="none" stroke="#333333" cx="606" cy="-174" rx="36" ry="36"/>
<text text-anchor="middle" x="606" y="-171.8" font-family="Arial" font-size="9.00">upload</text>
</g>
<!-- place_2b020927d3c6eb407223a1baa3d6ce3597a3f88d&#45;&gt;place_bb73aaafa1596e5425dc514a361ad4ef658f2758 -->
<g id="edge4" class="edge">
<title>place_2b020927d3c6eb407223a1baa3d6ce3597a3f88d&#45;&gt;place_bb73aaafa1596e5425dc514a361ad4ef658f2758</title>
<path fill="none" stroke="#333333" d="M198.05,-196.1C279.05,-191.7 478.83,-180.85 564.7,-176.19"/>
<polygon fill="#333333" stroke="#333333" points="565.05,-177.92 569.94,-175.9 564.86,-174.43 565.05,-177.92"/>
<text text-anchor="middle" x="368.5" y="-189.8" font-family="Arial" font-size="9.00">upload</text>
</g>
<!-- place_3a47bc9ccd1fcb4960be12d43b2dd3ff152c1784 -->
<g id="node6" class="node">
<title>place_3a47bc9ccd1fcb4960be12d43b2dd3ff152c1784</title>
<ellipse fill="none" stroke="#333333" cx="748" cy="-128" rx="36" ry="36"/>
<text text-anchor="middle" x="748" y="-125.8" font-family="Arial" font-size="9.00">cleanup</text>
</g>
<!-- place_2b020927d3c6eb407223a1baa3d6ce3597a3f88d&#45;&gt;place_3a47bc9ccd1fcb4960be12d43b2dd3ff152c1784 -->
<g id="edge5" class="edge">
<title>place_2b020927d3c6eb407223a1baa3d6ce3597a3f88d&#45;&gt;place_3a47bc9ccd1fcb4960be12d43b2dd3ff152c1784</title>
<path fill="none" stroke="#333333" d="M185.74,-170.16C209.51,-144.38 249.39,-110 293,-110 293,-110 293,-110 607,-110 641.14,-110 679.59,-115.33 707.54,-120.19"/>
<polygon fill="#333333" stroke="#333333" points="707.41,-121.94 712.64,-121.09 708.02,-118.5 707.41,-121.94"/>
<text text-anchor="middle" x="443" y="-112.8" font-family="Arial" font-size="9.00">cleanup</text>
</g>
<!-- place_97d71cd74ed03f9adda9ea79841f70fd9c524e0a -->
<g id="node7" class="node">
<title>place_97d71cd74ed03f9adda9ea79841f70fd9c524e0a</title>
<ellipse fill="none" stroke="#333333" cx="911.66" cy="-72" rx="36.83" ry="36.83"/>
<text text-anchor="middle" x="911.66" y="-69.8" font-family="Arial" font-size="9.00">health_check</text>
</g>
<!-- place_2b020927d3c6eb407223a1baa3d6ce3597a3f88d&#45;&gt;place_97d71cd74ed03f9adda9ea79841f70fd9c524e0a -->
<g id="edge6" class="edge">
<title>place_2b020927d3c6eb407223a1baa3d6ce3597a3f88d&#45;&gt;place_97d71cd74ed03f9adda9ea79841f70fd9c524e0a</title>
<path fill="none" stroke="#333333" d="M177.28,-165.22C197.04,-125.55 236.76,-64 293,-64 293,-64 293,-64 749,-64 790.21,-64 837.26,-66.63 869.93,-68.87"/>
<polygon fill="#333333" stroke="#333333" points="869.94,-70.62 875.05,-69.22 870.18,-67.13 869.94,-70.62"/>
<text text-anchor="middle" x="524.5" y="-66.8" font-family="Arial" font-size="9.00">health_check</text>
</g>
<!-- place_2b020927d3c6eb407223a1baa3d6ce3597a3f88d&#45;&gt;place_5f5f8758f5f22d523e531f58123b6db9161683a4 -->
<g id="edge7" class="edge">
<title>place_2b020927d3c6eb407223a1baa3d6ce3597a3f88d&#45;&gt;place_5f5f8758f5f22d523e531f58123b6db9161683a4</title>
<path fill="none" stroke="#333333" d="M176.08,-231.29C195.01,-273.26 234.34,-340 293,-340 293,-340 293,-340 1045.33,-340 1101.02,-340 1146.37,-287.29 1171.33,-250.32"/>
<polygon fill="#333333" stroke="#333333" points="1172.96,-251.03 1174.27,-245.9 1170.04,-249.09 1172.96,-251.03"/>
<text text-anchor="middle" x="677" y="-342.8" font-family="Arial" font-size="9.00">failed</text>
</g>
<!-- place_817248fb77fb5c2cef3f2c732ad257cb1fb9c5e4 -->
<g id="node4" class="node">
<title>place_817248fb77fb5c2cef3f2c732ad257cb1fb9c5e4</title>
<ellipse fill="none" stroke="#333333" cx="443" cy="-276" rx="36" ry="36"/>
<text text-anchor="middle" x="443" y="-273.8" font-family="Arial" font-size="9.00">download</text>
</g>
<!-- place_9567d1547e105470e4e53c1568f07a209e82a161&#45;&gt;place_817248fb77fb5c2cef3f2c732ad257cb1fb9c5e4 -->
<g id="edge8" class="edge">
<title>place_9567d1547e105470e4e53c1568f07a209e82a161&#45;&gt;place_817248fb77fb5c2cef3f2c732ad257cb1fb9c5e4</title>
<path fill="none" stroke="#333333" d="M329.09,-246.81C351.09,-252.5 379.78,-259.92 402.73,-265.85"/>
<polygon fill="#333333" stroke="#333333" points="402.56,-267.61 407.84,-267.17 403.43,-264.22 402.56,-267.61"/>
<text text-anchor="middle" x="368.5" y="-263.8" font-family="Arial" font-size="9.00">download</text>
</g>
<!-- place_9567d1547e105470e4e53c1568f07a209e82a161&#45;&gt;place_5f5f8758f5f22d523e531f58123b6db9161683a4 -->
<g id="edge9" class="edge">
<title>place_9567d1547e105470e4e53c1568f07a209e82a161&#45;&gt;place_5f5f8758f5f22d523e531f58123b6db9161683a4</title>
<path fill="none" stroke="#333333" d="M330.3,-235.63C352.35,-234.19 381.32,-232.37 407,-231 446.98,-228.86 456.97,-227.89 497,-227 521.44,-226.46 527.58,-225.92 552,-227 607.27,-229.45 620.67,-238 676,-238 676,-238 676,-238 1045.33,-238 1082.2,-238 1123.66,-230.85 1153.12,-224.52"/>
<polygon fill="#333333" stroke="#333333" points="1153.6,-226.21 1158.11,-223.43 1152.85,-222.79 1153.6,-226.21"/>
<text text-anchor="middle" x="748" y="-240.8" font-family="Arial" font-size="9.00">failed</text>
</g>
<!-- place_817248fb77fb5c2cef3f2c732ad257cb1fb9c5e4&#45;&gt;place_bb73aaafa1596e5425dc514a361ad4ef658f2758 -->
<g id="edge10" class="edge">
<title>place_817248fb77fb5c2cef3f2c732ad257cb1fb9c5e4&#45;&gt;place_bb73aaafa1596e5425dc514a361ad4ef658f2758</title>
<path fill="none" stroke="#333333" d="M473.91,-257.05C501.36,-239.66 542,-213.91 570.75,-195.7"/>
<polygon fill="#333333" stroke="#333333" points="571.97,-197 575.25,-192.84 570.09,-194.04 571.97,-197"/>
<text text-anchor="middle" x="524.5" y="-242.8" font-family="Arial" font-size="9.00">upload</text>
</g>
<!-- place_817248fb77fb5c2cef3f2c732ad257cb1fb9c5e4&#45;&gt;place_5f5f8758f5f22d523e531f58123b6db9161683a4 -->
<g id="edge11" class="edge">
<title>place_817248fb77fb5c2cef3f2c732ad257cb1fb9c5e4&#45;&gt;place_5f5f8758f5f22d523e531f58123b6db9161683a4</title>
<path fill="none" stroke="#333333" d="M479.18,-276C511.79,-276 561.68,-276 605,-276 605,-276 605,-276 1045.33,-276 1088.45,-276 1100.13,-269.96 1139.33,-252 1146.37,-248.77 1153.48,-244.59 1160.09,-240.21"/>
<polygon fill="#333333" stroke="#333333" points="1161.43,-241.41 1164.58,-237.15 1159.47,-238.52 1161.43,-241.41"/>
<text text-anchor="middle" x="829.5" y="-278.8" font-family="Arial" font-size="9.00">failed</text>
</g>
<!-- place_bb73aaafa1596e5425dc514a361ad4ef658f2758&#45;&gt;place_3a47bc9ccd1fcb4960be12d43b2dd3ff152c1784 -->
<g id="edge12" class="edge">
<title>place_bb73aaafa1596e5425dc514a361ad4ef658f2758&#45;&gt;place_3a47bc9ccd1fcb4960be12d43b2dd3ff152c1784</title>
<path fill="none" stroke="#333333" d="M640.53,-162.98C660.9,-156.29 686.99,-147.72 708.24,-140.73"/>
<polygon fill="#333333" stroke="#333333" points="709.05,-142.31 713.25,-139.09 707.96,-138.99 709.05,-142.31"/>
<text text-anchor="middle" x="677" y="-159.8" font-family="Arial" font-size="9.00">cleanup</text>
</g>
<!-- place_bb73aaafa1596e5425dc514a361ad4ef658f2758&#45;&gt;place_5f5f8758f5f22d523e531f58123b6db9161683a4 -->
<g id="edge13" class="edge">
<title>place_bb73aaafa1596e5425dc514a361ad4ef658f2758&#45;&gt;place_5f5f8758f5f22d523e531f58123b6db9161683a4</title>
<path fill="none" stroke="#333333" d="M641.36,-180.91C669.61,-185.98 710.73,-192 747,-192 747,-192 747,-192 1045.33,-192 1082.2,-192 1123.66,-199.15 1153.12,-205.48"/>
<polygon fill="#333333" stroke="#333333" points="1152.85,-207.21 1158.11,-206.57 1153.6,-203.79 1152.85,-207.21"/>
<text text-anchor="middle" x="911.66" y="-194.8" font-family="Arial" font-size="9.00">failed</text>
</g>
<!-- place_3a47bc9ccd1fcb4960be12d43b2dd3ff152c1784&#45;&gt;place_97d71cd74ed03f9adda9ea79841f70fd9c524e0a -->
<g id="edge14" class="edge">
<title>place_3a47bc9ccd1fcb4960be12d43b2dd3ff152c1784&#45;&gt;place_97d71cd74ed03f9adda9ea79841f70fd9c524e0a</title>
<path fill="none" stroke="#333333" d="M782.5,-116.4C808.44,-107.41 844.43,-94.94 871.67,-85.51"/>
<polygon fill="#333333" stroke="#333333" points="872.5,-87.07 876.65,-83.78 871.36,-83.76 872.5,-87.07"/>
<text text-anchor="middle" x="829.5" y="-111.8" font-family="Arial" font-size="9.00">health_check</text>
</g>
<!-- place_3a47bc9ccd1fcb4960be12d43b2dd3ff152c1784&#45;&gt;place_5f5f8758f5f22d523e531f58123b6db9161683a4 -->
<g id="edge15" class="edge">
<title>place_3a47bc9ccd1fcb4960be12d43b2dd3ff152c1784&#45;&gt;place_5f5f8758f5f22d523e531f58123b6db9161683a4</title>
<path fill="none" stroke="#333333" d="M784.02,-126.99C854.04,-126.13 1015.21,-130.08 1139.33,-178 1146.78,-180.88 1154.19,-185.02 1161.01,-189.5"/>
<polygon fill="#333333" stroke="#333333" points="1160.04,-190.96 1165.16,-192.32 1162.01,-188.06 1160.04,-190.96"/>
<text text-anchor="middle" x="978.33" y="-143.8" font-family="Arial" font-size="9.00">failed</text>
</g>
<!-- place_b96cfac54be615490f0d0dab6adbf7cbb9f04428 -->
<g id="node8" class="node">
<title>place_b96cfac54be615490f0d0dab6adbf7cbb9f04428</title>
<ellipse fill="none" stroke="#333333" cx="1044.33" cy="-36" rx="36" ry="36"/>
<text text-anchor="middle" x="1044.33" y="-33.8" font-family="Arial" font-size="9.00">forget</text>
</g>
<!-- place_97d71cd74ed03f9adda9ea79841f70fd9c524e0a&#45;&gt;place_b96cfac54be615490f0d0dab6adbf7cbb9f04428 -->
<g id="edge16" class="edge">
<title>place_97d71cd74ed03f9adda9ea79841f70fd9c524e0a&#45;&gt;place_b96cfac54be615490f0d0dab6adbf7cbb9f04428</title>
<path fill="none" stroke="#333333" d="M947.34,-62.45C964.89,-57.61 986.26,-51.72 1004.38,-46.73"/>
<polygon fill="#333333" stroke="#333333" points="1005.04,-48.36 1009.4,-45.35 1004.11,-44.99 1005.04,-48.36"/>
<text text-anchor="middle" x="978.33" y="-59.8" font-family="Arial" font-size="9.00">forget</text>
</g>
<!-- place_97d71cd74ed03f9adda9ea79841f70fd9c524e0a&#45;&gt;place_5f5f8758f5f22d523e531f58123b6db9161683a4 -->
<g id="edge17" class="edge">
<title>place_97d71cd74ed03f9adda9ea79841f70fd9c524e0a&#45;&gt;place_5f5f8758f5f22d523e531f58123b6db9161683a4</title>
<path fill="none" stroke="#333333" d="M948.69,-73.57C996.51,-77.31 1081.63,-89.87 1139.33,-132 1155.11,-143.52 1167.36,-161.29 1176.09,-177.44"/>
<polygon fill="#333333" stroke="#333333" points="1174.58,-178.33 1178.46,-181.94 1177.68,-176.7 1174.58,-178.33"/>
<text text-anchor="middle" x="1044.33" y="-103.8" font-family="Arial" font-size="9.00">failed</text>
</g>
<!-- place_cdfd7e1942f8f8c2c4adfd9967d4c655bbbd99ab -->
<g id="node9" class="node">
<title>place_cdfd7e1942f8f8c2c4adfd9967d4c655bbbd99ab</title>
<ellipse fill="none" stroke="#333333" cx="1193.33" cy="-36" rx="36" ry="36"/>
<text text-anchor="middle" x="1193.33" y="-33.8" font-family="Arial" font-size="9.00">backuped</text>
</g>
<!-- place_b96cfac54be615490f0d0dab6adbf7cbb9f04428&#45;&gt;place_cdfd7e1942f8f8c2c4adfd9967d4c655bbbd99ab -->
<g id="edge18" class="edge">
<title>place_b96cfac54be615490f0d0dab6adbf7cbb9f04428&#45;&gt;place_cdfd7e1942f8f8c2c4adfd9967d4c655bbbd99ab</title>
<path fill="none" stroke="#333333" d="M1080.54,-36C1102.01,-36 1129.52,-36 1151.88,-36"/>
<polygon fill="#333333" stroke="#333333" points="1152.15,-37.75 1157.15,-36 1152.15,-34.25 1152.15,-37.75"/>
<text text-anchor="middle" x="1118.83" y="-38.8" font-family="Arial" font-size="9.00">backuped</text>
</g>
<!-- place_b96cfac54be615490f0d0dab6adbf7cbb9f04428&#45;&gt;place_5f5f8758f5f22d523e531f58123b6db9161683a4 -->
<g id="edge19" class="edge">
<title>place_b96cfac54be615490f0d0dab6adbf7cbb9f04428&#45;&gt;place_5f5f8758f5f22d523e531f58123b6db9161683a4</title>
<path fill="none" stroke="#333333" d="M1079.08,-46.5C1098.88,-54.14 1123.11,-66.3 1139.33,-84 1162.65,-109.46 1176.35,-146.52 1183.95,-174.73"/>
<polygon fill="#333333" stroke="#333333" points="1182.35,-175.5 1185.31,-179.89 1185.73,-174.61 1182.35,-175.5"/>
<text text-anchor="middle" x="1118.83" y="-86.8" font-family="Arial" font-size="9.00">failed</text>
</g>
</g>
</svg>
