<?xml version="1.0" encoding="UTF-8" standalone="no"?>
<!DOCTYPE svg PUBLIC "-//W3C//DTD SVG 1.1//EN"
 "http://www.w3.org/Graphics/SVG/1.1/DTD/svg11.dtd">
<!-- Generated by graphviz version 2.43.0 (0)
 -->
<!-- Title: workflow Pages: 1 -->
<svg width="1237pt" height="395pt"
 viewBox="0.00 0.00 1237.33 395.00" xmlns="http://www.w3.org/2000/svg" xmlns:xlink="http://www.w3.org/1999/xlink">
<g id="graph0" class="graph" transform="scale(1 1) rotate(0) translate(4 391)">
<title>workflow</title>
<polygon fill="white" stroke="transparent" points="-4,4 -4,-391 1233.33,-391 1233.33,4 -4,4"/>
<!-- place_92f9552174fc81f2ab9e6c0c1c06b3e11706a32b -->
<g id="node1" class="node">
<title>place_92f9552174fc81f2ab9e6c0c1c06b3e11706a32b</title>
<ellipse fill="lightblue" stroke="#333333" cx="36" cy="-345" rx="36" ry="36"/>
<text text-anchor="middle" x="36" y="-342.8" font-family="Arial" font-size="9.00">initialized</text>
</g>
<!-- place_2b020927d3c6eb407223a1baa3d6ce3597a3f88d -->
<g id="node2" class="node">
<title>place_2b020927d3c6eb407223a1baa3d6ce3597a3f88d</title>
<ellipse fill="none" stroke="#333333" cx="162" cy="-271" rx="36" ry="36"/>
<text text-anchor="middle" x="162" y="-268.8" font-family="Arial" font-size="9.00">start</text>
</g>
<!-- place_92f9552174fc81f2ab9e6c0c1c06b3e11706a32b&#45;&gt;place_2b020927d3c6eb407223a1baa3d6ce3597a3f88d -->
<g id="edge1" class="edge">
<title>place_92f9552174fc81f2ab9e6c0c1c06b3e11706a32b&#45;&gt;place_2b020927d3c6eb407223a1baa3d6ce3597a3f88d</title>
<path fill="none" stroke="#333333" d="M67.33,-326.9C85.05,-316.33 107.48,-302.94 125.94,-291.92"/>
<polygon fill="#333333" stroke="#333333" points="127.15,-293.24 130.55,-289.17 125.36,-290.23 127.15,-293.24"/>
<text text-anchor="middle" x="99" y="-314.8" font-family="Arial" font-size="9.00">start</text>
</g>
<!-- place_5f5f8758f5f22d523e531f58123b6db9161683a4 -->
<g id="node10" class="node">
<title>place_5f5f8758f5f22d523e531f58123b6db9161683a4</title>
<ellipse fill="none" stroke="#333333" cx="1193.33" cy="-227" rx="36" ry="36"/>
<text text-anchor="middle" x="1193.33" y="-224.8" font-family="Arial" font-size="9.00">failed</text>
</g>
<!-- place_92f9552174fc81f2ab9e6c0c1c06b3e11706a32b&#45;&gt;place_5f5f8758f5f22d523e531f58123b6db9161683a4 -->
<g id="edge2" class="edge">
<title>place_92f9552174fc81f2ab9e6c0c1c06b3e11706a32b&#45;&gt;place_5f5f8758f5f22d523e531f58123b6db9161683a4</title>
<path fill="none" stroke="#333333" d="M69.57,-358.2C94.24,-367.02 129.21,-377 161,-377 161,-377 161,-377 1045.33,-377 1108.25,-377 1153.14,-308.84 1175.72,-264.41"/>
<polygon fill="#333333" stroke="#333333" points="1177.29,-265.17 1177.96,-259.92 1174.16,-263.61 1177.29,-265.17"/>
<text text-anchor="middle" x="606" y="-379.8" font-family="Arial" font-size="9.00">failed</text>
</g>
<!-- place_9567d1547e105470e4e53c1568f07a209e82a161 -->
<g id="node3" class="node">
<title>place_9567d1547e105470e4e53c1568f07a209e82a161</title>
<ellipse fill="none" stroke="#333333" cx="294" cy="-254" rx="36" ry="36"/>
<text text-anchor="middle" x="294" y="-251.8" font-family="Arial" font-size="9.00">dump</text>
</g>
<!-- place_2b020927d3c6eb407223a1baa3d6ce3597a3f88d&#45;&gt;place_9567d1547e105470e4e53c1568f07a209e82a161 -->
<g id="edge3" class="edge">
<title>place_2b020927d3c6eb407223a1baa3d6ce3597a3f88d&#45;&gt;place_9567d1547e105470e4e53c1568f07a209e82a161</title>
<path fill="none" stroke="#333333" d="M197.84,-266.44C214.74,-264.23 235.14,-261.57 252.71,-259.27"/>
<polygon fill="#333333" stroke="#333333" points="253.34,-260.95 258.07,-258.57 252.88,-257.48 253.34,-260.95"/>
<text text-anchor="middle" x="228" y="-266.8" font-family="Arial" font-size="9.00">dump</text>
</g>
<!-- place_97d71cd74ed03f9adda9ea79841f70fd9c524e0a -->
<g id="node7" class="node">
<title>place_97d71cd74ed03f9adda9ea79841f70fd9c524e0a</title>
<ellipse fill="none" stroke="#333333" cx="911.66" cy="-81" rx="36.83" ry="36.83"/>
<text text-anchor="middle" x="911.66" y="-78.8" font-family="Arial" font-size="9.00">health_check</text>
</g>
<!-- place_2b020927d3c6eb407223a1baa3d6ce3597a3f88d&#45;&gt;place_97d71cd74ed03f9adda9ea79841f70fd9c524e0a -->
<g id="edge4" class="edge">
<title>place_2b020927d3c6eb407223a1baa3d6ce3597a3f88d&#45;&gt;place_97d71cd74ed03f9adda9ea79841f70fd9c524e0a</title>
<path fill="none" stroke="#333333" d="M170.28,-235.71C183.91,-180.76 218.86,-81 293,-81 293,-81 293,-81 749,-81 790.03,-81 836.91,-81 869.59,-81"/>
<polygon fill="#333333" stroke="#333333" points="869.71,-82.75 874.71,-81 869.71,-79.25 869.71,-82.75"/>
<text text-anchor="middle" x="524.5" y="-83.8" font-family="Arial" font-size="9.00">health_check</text>
</g>
<!-- place_2b020927d3c6eb407223a1baa3d6ce3597a3f88d&#45;&gt;place_5f5f8758f5f22d523e531f58123b6db9161683a4 -->
<g id="edge5" class="edge">
<title>place_2b020927d3c6eb407223a1baa3d6ce3597a3f88d&#45;&gt;place_5f5f8758f5f22d523e531f58123b6db9161683a4</title>
<path fill="none" stroke="#333333" d="M191.23,-292.66C216.47,-309.85 255.22,-331 293,-331 293,-331 293,-331 1045.33,-331 1095.59,-331 1140.7,-289.98 1167.31,-259.46"/>
<polygon fill="#333333" stroke="#333333" points="1168.85,-260.35 1170.78,-255.42 1166.19,-258.07 1168.85,-260.35"/>
<text text-anchor="middle" x="677" y="-333.8" font-family="Arial" font-size="9.00">failed</text>
</g>
<!-- place_817248fb77fb5c2cef3f2c732ad257cb1fb9c5e4 -->
<g id="node4" class="node">
<title>place_817248fb77fb5c2cef3f2c732ad257cb1fb9c5e4</title>
<ellipse fill="none" stroke="#333333" cx="443" cy="-254" rx="36" ry="36"/>
<text text-anchor="middle" x="443" y="-251.8" font-family="Arial" font-size="9.00">download</text>
</g>
<!-- place_9567d1547e105470e4e53c1568f07a209e82a161&#45;&gt;place_817248fb77fb5c2cef3f2c732ad257cb1fb9c5e4 -->
<g id="edge6" class="edge">
<title>place_9567d1547e105470e4e53c1568f07a209e82a161&#45;&gt;place_817248fb77fb5c2cef3f2c732ad257cb1fb9c5e4</title>
<path fill="none" stroke="#333333" d="M330.21,-254C351.68,-254 379.19,-254 401.55,-254"/>
<polygon fill="#333333" stroke="#333333" points="401.82,-255.75 406.82,-254 401.82,-252.25 401.82,-255.75"/>
<text text-anchor="middle" x="368.5" y="-256.8" font-family="Arial" font-size="9.00">download</text>
</g>
<!-- place_9567d1547e105470e4e53c1568f07a209e82a161&#45;&gt;place_5f5f8758f5f22d523e531f58123b6db9161683a4 -->
<g id="edge7" class="edge">
<title>place_9567d1547e105470e4e53c1568f07a209e82a161&#45;&gt;place_5f5f8758f5f22d523e531f58123b6db9161683a4</title>
<path fill="none" stroke="#333333" d="M312.73,-222.93C336.76,-185.33 383.49,-127 442,-127 442,-127 442,-127 678,-127 859.05,-127 1069.47,-187.45 1154.16,-214.35"/>
<polygon fill="#333333" stroke="#333333" points="1153.77,-216.06 1159.07,-215.92 1154.83,-212.73 1153.77,-216.06"/>
<text text-anchor="middle" x="748" y="-134.8" font-family="Arial" font-size="9.00">failed</text>
</g>
<!-- place_bb73aaafa1596e5425dc514a361ad4ef658f2758 -->
<g id="node5" class="node">
<title>place_bb73aaafa1596e5425dc514a361ad4ef658f2758</title>
<ellipse fill="none" stroke="#333333" cx="606" cy="-229" rx="36" ry="36"/>
<text text-anchor="middle" x="606" y="-226.8" font-family="Arial" font-size="9.00">upload</text>
</g>
<!-- place_817248fb77fb5c2cef3f2c732ad257cb1fb9c5e4&#45;&gt;place_bb73aaafa1596e5425dc514a361ad4ef658f2758 -->
<g id="edge8" class="edge">
<title>place_817248fb77fb5c2cef3f2c732ad257cb1fb9c5e4&#45;&gt;place_bb73aaafa1596e5425dc514a361ad4ef658f2758</title>
<path fill="none" stroke="#333333" d="M478.93,-248.58C504.25,-244.64 538.53,-239.32 564.96,-235.22"/>
<polygon fill="#333333" stroke="#333333" points="565.46,-236.91 570.13,-234.41 564.92,-233.45 565.46,-236.91"/>
<text text-anchor="middle" x="524.5" y="-247.8" font-family="Arial" font-size="9.00">upload</text>
</g>
<!-- place_817248fb77fb5c2cef3f2c732ad257cb1fb9c5e4&#45;&gt;place_5f5f8758f5f22d523e531f58123b6db9161683a4 -->
<g id="edge9" class="edge">
<title>place_817248fb77fb5c2cef3f2c732ad257cb1fb9c5e4&#45;&gt;place_5f5f8758f5f22d523e531f58123b6db9161683a4</title>
<path fill="none" stroke="#333333" d="M476.74,-266.77C508.88,-278.14 559.56,-293 605,-293 605,-293 605,-293 1045.33,-293 1087.55,-293 1131.08,-270.06 1159.7,-251.23"/>
<polygon fill="#333333" stroke="#333333" points="1160.98,-252.48 1164.17,-248.25 1159.04,-249.57 1160.98,-252.48"/>
<text text-anchor="middle" x="829.5" y="-295.8" font-family="Arial" font-size="9.00">failed</text>
</g>
<!-- place_3a47bc9ccd1fcb4960be12d43b2dd3ff152c1784 -->
<g id="node6" class="node">
<title>place_3a47bc9ccd1fcb4960be12d43b2dd3ff152c1784</title>
<ellipse fill="none" stroke="#333333" cx="748" cy="-191" rx="36" ry="36"/>
<text text-anchor="middle" x="748" y="-188.8" font-family="Arial" font-size="9.00">cleanup</text>
</g>
<!-- place_bb73aaafa1596e5425dc514a361ad4ef658f2758&#45;&gt;place_3a47bc9ccd1fcb4960be12d43b2dd3ff152c1784 -->
<g id="edge10" class="edge">
<title>place_bb73aaafa1596e5425dc514a361ad4ef658f2758&#45;&gt;place_3a47bc9ccd1fcb4960be12d43b2dd3ff152c1784</title>
<path fill="none" stroke="#333333" d="M640.89,-219.8C661.12,-214.31 686.89,-207.32 707.96,-201.6"/>
<polygon fill="#333333" stroke="#333333" points="708.57,-203.24 712.94,-200.25 707.65,-199.87 708.57,-203.24"/>
<text text-anchor="middle" x="677" y="-216.8" font-family="Arial" font-size="9.00">cleanup</text>
</g>
<!-- place_bb73aaafa1596e5425dc514a361ad4ef658f2758&#45;&gt;place_5f5f8758f5f22d523e531f58123b6db9161683a4 -->
<g id="edge11" class="edge">
<title>place_bb73aaafa1596e5425dc514a361ad4ef658f2758&#45;&gt;place_5f5f8758f5f22d523e531f58123b6db9161683a4</title>
<path fill="none" stroke="#333333" d="M640.91,-238.9C669.06,-246.25 710.29,-255 747,-255 747,-255 747,-255 1045.33,-255 1082.54,-255 1124.12,-246.24 1153.54,-238.52"/>
<polygon fill="#333333" stroke="#333333" points="1154.14,-240.17 1158.52,-237.19 1153.24,-236.78 1154.14,-240.17"/>
<text text-anchor="middle" x="911.66" y="-257.8" font-family="Arial" font-size="9.00">failed</text>
</g>
<!-- place_3a47bc9ccd1fcb4960be12d43b2dd3ff152c1784&#45;&gt;place_97d71cd74ed03f9adda9ea79841f70fd9c524e0a -->
<g id="edge12" class="edge">
<title>place_3a47bc9ccd1fcb4960be12d43b2dd3ff152c1784&#45;&gt;place_97d71cd74ed03f9adda9ea79841f70fd9c524e0a</title>
<path fill="none" stroke="#333333" d="M778.28,-171.08C805.94,-152.26 847.44,-124.02 876.58,-104.19"/>
<polygon fill="#333333" stroke="#333333" points="877.64,-105.59 880.79,-101.33 875.67,-102.7 877.64,-105.59"/>
<text text-anchor="middle" x="829.5" y="-154.8" font-family="Arial" font-size="9.00">health_check</text>
</g>
<!-- place_3a47bc9ccd1fcb4960be12d43b2dd3ff152c1784&#45;&gt;place_5f5f8758f5f22d523e531f58123b6db9161683a4 -->
<g id="edge13" class="edge">
<title>place_3a47bc9ccd1fcb4960be12d43b2dd3ff152c1784&#45;&gt;place_5f5f8758f5f22d523e531f58123b6db9161683a4</title>
<path fill="none" stroke="#333333" d="M784.16,-193.85C865.48,-200.46 1066.18,-216.76 1152.17,-223.74"/>
<polygon fill="#333333" stroke="#333333" points="1152.04,-225.48 1157.17,-224.14 1152.33,-222 1152.04,-225.48"/>
<text text-anchor="middle" x="978.33" y="-212.8" font-family="Arial" font-size="9.00">failed</text>
</g>
<!-- place_b96cfac54be615490f0d0dab6adbf7cbb9f04428 -->
<g id="node8" class="node">
<title>place_b96cfac54be615490f0d0dab6adbf7cbb9f04428</title>
<ellipse fill="none" stroke="#333333" cx="1044.33" cy="-36" rx="36" ry="36"/>
<text text-anchor="middle" x="1044.33" y="-33.8" font-family="Arial" font-size="9.00">forget</text>
</g>
<!-- place_97d71cd74ed03f9adda9ea79841f70fd9c524e0a&#45;&gt;place_b96cfac54be615490f0d0dab6adbf7cbb9f04428 -->
<g id="edge14" class="edge">
<title>place_97d71cd74ed03f9adda9ea79841f70fd9c524e0a&#45;&gt;place_b96cfac54be615490f0d0dab6adbf7cbb9f04428</title>
<path fill="none" stroke="#333333" d="M946.65,-69.29C964.49,-63.15 986.4,-55.61 1004.85,-49.25"/>
<polygon fill="#333333" stroke="#333333" points="1005.8,-50.77 1009.96,-47.49 1004.66,-47.46 1005.8,-50.77"/>
<text text-anchor="middle" x="978.33" y="-64.8" font-family="Arial" font-size="9.00">forget</text>
</g>
<!-- place_97d71cd74ed03f9adda9ea79841f70fd9c524e0a&#45;&gt;place_5f5f8758f5f22d523e531f58123b6db9161683a4 -->
<g id="edge15" class="edge">
<title>place_97d71cd74ed03f9adda9ea79841f70fd9c524e0a&#45;&gt;place_5f5f8758f5f22d523e531f58123b6db9161683a4</title>
<path fill="none" stroke="#333333" d="M948.57,-80.38C996.65,-81.34 1082.46,-89.51 1139.33,-132 1157.88,-145.86 1170.82,-168.23 1179.27,-187.79"/>
<polygon fill="#333333" stroke="#333333" points="1177.77,-188.76 1181.32,-192.69 1181,-187.4 1177.77,-188.76"/>
<text text-anchor="middle" x="1044.33" y="-103.8" font-family="Arial" font-size="9.00">failed</text>
</g>
<!-- place_cdfd7e1942f8f8c2c4adfd9967d4c655bbbd99ab -->
<g id="node9" class="node">
<title>place_cdfd7e1942f8f8c2c4adfd9967d4c655bbbd99ab</title>
<ellipse fill="none" stroke="#333333" cx="1193.33" cy="-36" rx="36" ry="36"/>
<text text-anchor="middle" x="1193.33" y="-33.8" font-family="Arial" font-size="9.00">backuped</text>
</g>
<!-- place_b96cfac54be615490f0d0dab6adbf7cbb9f04428&#45;&gt;place_cdfd7e1942f8f8c2c4adfd9967d4c655bbbd99ab -->
<g id="edge16" class="edge">
<title>place_b96cfac54be615490f0d0dab6adbf7cbb9f04428&#45;&gt;place_cdfd7e1942f8f8c2c4adfd9967d4c655bbbd99ab</title>
<path fill="none" stroke="#333333" d="M1080.54,-36C1102.01,-36 1129.52,-36 1151.88,-36"/>
<polygon fill="#333333" stroke="#333333" points="1152.15,-37.75 1157.15,-36 1152.15,-34.25 1152.15,-37.75"/>
<text text-anchor="middle" x="1118.83" y="-38.8" font-family="Arial" font-size="9.00">backuped</text>
</g>
<!-- place_b96cfac54be615490f0d0dab6adbf7cbb9f04428&#45;&gt;place_5f5f8758f5f22d523e531f58123b6db9161683a4 -->
<g id="edge17" class="edge">
<title>place_b96cfac54be615490f0d0dab6adbf7cbb9f04428&#45;&gt;place_5f5f8758f5f22d523e531f58123b6db9161683a4</title>
<path fill="none" stroke="#333333" d="M1079.27,-46.33C1099.14,-53.91 1123.38,-66.06 1139.33,-84 1165.05,-112.92 1178.67,-155.44 1185.63,-186.6"/>
<polygon fill="#333333" stroke="#333333" points="1183.93,-186.98 1186.7,-191.5 1187.35,-186.24 1183.93,-186.98"/>
<text text-anchor="middle" x="1118.83" y="-86.8" font-family="Arial" font-size="9.00">failed</text>
</g>
</g>
</svg>
