<?xml version="1.0" encoding="UTF-8" standalone="no"?>
<!DOCTYPE svg PUBLIC "-//W3C//DTD SVG 1.1//EN"
 "http://www.w3.org/Graphics/SVG/1.1/DTD/svg11.dtd">
<!-- Generated by graphviz version 2.43.0 (0)
 -->
<!-- Title: workflow Pages: 1 -->
<svg width="1268pt" height="464pt"
 viewBox="0.00 0.00 1268.33 464.00" xmlns="http://www.w3.org/2000/svg" xmlns:xlink="http://www.w3.org/1999/xlink">
<g id="graph0" class="graph" transform="scale(1 1) rotate(0) translate(4 460)">
<title>workflow</title>
<polygon fill="white" stroke="transparent" points="-4,4 -4,-460 1264.33,-460 1264.33,4 -4,4"/>
<!-- place_92f9552174fc81f2ab9e6c0c1c06b3e11706a32b -->
<g id="node1" class="node">
<title>place_92f9552174fc81f2ab9e6c0c1c06b3e11706a32b</title>
<ellipse fill="lightblue" stroke="#333333" cx="36" cy="-356" rx="36" ry="36"/>
<text text-anchor="middle" x="36" y="-353.8" font-family="Arial" font-size="9.00">initialized</text>
</g>
<!-- place_2b020927d3c6eb407223a1baa3d6ce3597a3f88d -->
<g id="node2" class="node">
<title>place_2b020927d3c6eb407223a1baa3d6ce3597a3f88d</title>
<ellipse fill="none" stroke="#333333" cx="162" cy="-258" rx="36" ry="36"/>
<text text-anchor="middle" x="162" y="-255.8" font-family="Arial" font-size="9.00">start</text>
</g>
<!-- place_92f9552174fc81f2ab9e6c0c1c06b3e11706a32b&#45;&gt;place_2b020927d3c6eb407223a1baa3d6ce3597a3f88d -->
<g id="edge1" class="edge">
<title>place_92f9552174fc81f2ab9e6c0c1c06b3e11706a32b&#45;&gt;place_2b020927d3c6eb407223a1baa3d6ce3597a3f88d</title>
<path fill="none" stroke="#333333" d="M64.83,-334.01C83.89,-318.94 109.23,-298.92 129.11,-283.2"/>
<polygon fill="#333333" stroke="#333333" points="130.43,-284.39 133.26,-279.92 128.26,-281.65 130.43,-284.39"/>
<text text-anchor="middle" x="99" y="-314.8" font-family="Arial" font-size="9.00">start</text>
</g>
<!-- place_5f5f8758f5f22d523e531f58123b6db9161683a4 -->
<g id="node11" class="node">
<title>place_5f5f8758f5f22d523e531f58123b6db9161683a4</title>
<ellipse fill="none" stroke="#333333" cx="1224.33" cy="-278" rx="36" ry="36"/>
<text text-anchor="middle" x="1224.33" y="-275.8" font-family="Arial" font-size="9.00">failed</text>
</g>
<!-- place_92f9552174fc81f2ab9e6c0c1c06b3e11706a32b&#45;&gt;place_5f5f8758f5f22d523e531f58123b6db9161683a4 -->
<g id="edge2" class="edge">
<title>place_92f9552174fc81f2ab9e6c0c1c06b3e11706a32b&#45;&gt;place_5f5f8758f5f22d523e531f58123b6db9161683a4</title>
<path fill="none" stroke="#333333" d="M58.28,-384.48C80.64,-410.84 118.44,-446 161,-446 161,-446 161,-446 1076.33,-446 1144.66,-446 1188.6,-366.31 1209.33,-316.7"/>
<polygon fill="#333333" stroke="#333333" points="1210.98,-317.29 1211.26,-312 1207.74,-315.96 1210.98,-317.29"/>
<text text-anchor="middle" x="606" y="-448.8" font-family="Arial" font-size="9.00">failed</text>
</g>
<!-- place_9567d1547e105470e4e53c1568f07a209e82a161 -->
<g id="node3" class="node">
<title>place_9567d1547e105470e4e53c1568f07a209e82a161</title>
<ellipse fill="none" stroke="#333333" cx="294" cy="-298" rx="36" ry="36"/>
<text text-anchor="middle" x="294" y="-295.8" font-family="Arial" font-size="9.00">dump</text>
</g>
<!-- place_2b020927d3c6eb407223a1baa3d6ce3597a3f88d&#45;&gt;place_9567d1547e105470e4e53c1568f07a209e82a161 -->
<g id="edge3" class="edge">
<title>place_2b020927d3c6eb407223a1baa3d6ce3597a3f88d&#45;&gt;place_9567d1547e105470e4e53c1568f07a209e82a161</title>
<path fill="none" stroke="#333333" d="M196.82,-268.41C214.42,-273.82 236.02,-280.47 254.29,-286.09"/>
<polygon fill="#333333" stroke="#333333" points="254.06,-287.85 259.35,-287.65 255.09,-284.5 254.06,-287.85"/>
<text text-anchor="middle" x="228" y="-283.8" font-family="Arial" font-size="9.00">dump</text>
</g>
<!-- place_bb73aaafa1596e5425dc514a361ad4ef658f2758 -->
<g id="node5" class="node">
<title>place_bb73aaafa1596e5425dc514a361ad4ef658f2758</title>
<ellipse fill="none" stroke="#333333" cx="606" cy="-252" rx="36" ry="36"/>
<text text-anchor="middle" x="606" y="-249.8" font-family="Arial" font-size="9.00">upload</text>
</g>
<!-- place_2b020927d3c6eb407223a1baa3d6ce3597a3f88d&#45;&gt;place_bb73aaafa1596e5425dc514a361ad4ef658f2758 -->
<g id="edge4" class="edge">
<title>place_2b020927d3c6eb407223a1baa3d6ce3597a3f88d&#45;&gt;place_bb73aaafa1596e5425dc514a361ad4ef658f2758</title>
<path fill="none" stroke="#333333" d="M198.17,-255.73C216.08,-254.68 238.19,-253.55 258,-253 368.7,-249.93 499.35,-250.75 564.21,-251.46"/>
<polygon fill="#333333" stroke="#333333" points="564.5,-253.21 569.52,-251.52 564.54,-249.71 564.5,-253.21"/>
<text text-anchor="middle" x="368.5" y="-253.8" font-family="Arial" font-size="9.00">upload</text>
</g>
<!-- place_3a47bc9ccd1fcb4960be12d43b2dd3ff152c1784 -->
<g id="node6" class="node">
<title>place_3a47bc9ccd1fcb4960be12d43b2dd3ff152c1784</title>
<ellipse fill="none" stroke="#333333" cx="748" cy="-210" rx="36" ry="36"/>
<text text-anchor="middle" x="748" y="-207.8" font-family="Arial" font-size="9.00">cleanup</text>
</g>
<!-- place_2b020927d3c6eb407223a1baa3d6ce3597a3f88d&#45;&gt;place_3a47bc9ccd1fcb4960be12d43b2dd3ff152c1784 -->
<g id="edge5" class="edge">
<title>place_2b020927d3c6eb407223a1baa3d6ce3597a3f88d&#45;&gt;place_3a47bc9ccd1fcb4960be12d43b2dd3ff152c1784</title>
<path fill="none" stroke="#333333" d="M189.19,-233.91C213.99,-213.66 253.27,-188 293,-188 293,-188 293,-188 607,-188 641.28,-188 679.72,-194.52 707.63,-200.46"/>
<polygon fill="#333333" stroke="#333333" points="707.46,-202.21 712.72,-201.56 708.2,-198.79 707.46,-202.21"/>
<text text-anchor="middle" x="443" y="-190.8" font-family="Arial" font-size="9.00">cleanup</text>
</g>
<!-- place_97d71cd74ed03f9adda9ea79841f70fd9c524e0a -->
<g id="node7" class="node">
<title>place_97d71cd74ed03f9adda9ea79841f70fd9c524e0a</title>
<ellipse fill="none" stroke="#333333" cx="911.66" cy="-152" rx="36.83" ry="36.83"/>
<text text-anchor="middle" x="911.66" y="-149.8" font-family="Arial" font-size="9.00">health_check</text>
</g>
<!-- place_2b020927d3c6eb407223a1baa3d6ce3597a3f88d&#45;&gt;place_97d71cd74ed03f9adda9ea79841f70fd9c524e0a -->
<g id="edge6" class="edge">
<title>place_2b020927d3c6eb407223a1baa3d6ce3597a3f88d&#45;&gt;place_97d71cd74ed03f9adda9ea79841f70fd9c524e0a</title>
<path fill="none" stroke="#333333" d="M180.32,-226.61C201.84,-192.25 242.03,-142 293,-142 293,-142 293,-142 749,-142 790.24,-142 837.28,-145.28 869.95,-148.09"/>
<polygon fill="#333333" stroke="#333333" points="869.93,-149.84 875.06,-148.53 870.24,-146.35 869.93,-149.84"/>
<text text-anchor="middle" x="524.5" y="-144.8" font-family="Arial" font-size="9.00">health_check</text>
</g>
<!-- place_2b020927d3c6eb407223a1baa3d6ce3597a3f88d&#45;&gt;place_5f5f8758f5f22d523e531f58123b6db9161683a4 -->
<g id="edge7" class="edge">
<title>place_2b020927d3c6eb407223a1baa3d6ce3597a3f88d&#45;&gt;place_5f5f8758f5f22d523e531f58123b6db9161683a4</title>
<path fill="none" stroke="#333333" d="M176.08,-291.29C195.01,-333.26 234.34,-400 293,-400 293,-400 293,-400 1076.33,-400 1131.3,-400 1176.72,-348.85 1201.9,-312.79"/>
<polygon fill="#333333" stroke="#333333" points="1203.48,-313.58 1204.87,-308.47 1200.6,-311.6 1203.48,-313.58"/>
<text text-anchor="middle" x="677" y="-402.8" font-family="Arial" font-size="9.00">failed</text>
</g>
<!-- place_817248fb77fb5c2cef3f2c732ad257cb1fb9c5e4 -->
<g id="node4" class="node">
<title>place_817248fb77fb5c2cef3f2c732ad257cb1fb9c5e4</title>
<ellipse fill="none" stroke="#333333" cx="443" cy="-298" rx="36" ry="36"/>
<text text-anchor="middle" x="443" y="-295.8" font-family="Arial" font-size="9.00">download</text>
</g>
<!-- place_9567d1547e105470e4e53c1568f07a209e82a161&#45;&gt;place_817248fb77fb5c2cef3f2c732ad257cb1fb9c5e4 -->
<g id="edge8" class="edge">
<title>place_9567d1547e105470e4e53c1568f07a209e82a161&#45;&gt;place_817248fb77fb5c2cef3f2c732ad257cb1fb9c5e4</title>
<path fill="none" stroke="#333333" d="M330.21,-298C351.68,-298 379.19,-298 401.55,-298"/>
<polygon fill="#333333" stroke="#333333" points="401.82,-299.75 406.82,-298 401.82,-296.25 401.82,-299.75"/>
<text text-anchor="middle" x="368.5" y="-300.8" font-family="Arial" font-size="9.00">download</text>
</g>
<!-- place_9567d1547e105470e4e53c1568f07a209e82a161&#45;&gt;place_5f5f8758f5f22d523e531f58123b6db9161683a4 -->
<g id="edge9" class="edge">
<title>place_9567d1547e105470e4e53c1568f07a209e82a161&#45;&gt;place_5f5f8758f5f22d523e531f58123b6db9161683a4</title>
<path fill="none" stroke="#333333" d="M323.53,-318.78C352.04,-337.47 397.88,-362 442,-362 442,-362 442,-362 1076.33,-362 1121.99,-362 1166.37,-331.06 1194.21,-306.74"/>
<polygon fill="#333333" stroke="#333333" points="1195.61,-307.83 1198.19,-303.2 1193.29,-305.21 1195.61,-307.83"/>
<text text-anchor="middle" x="748" y="-364.8" font-family="Arial" font-size="9.00">failed</text>
</g>
<!-- place_817248fb77fb5c2cef3f2c732ad257cb1fb9c5e4&#45;&gt;place_bb73aaafa1596e5425dc514a361ad4ef658f2758 -->
<g id="edge10" class="edge">
<title>place_817248fb77fb5c2cef3f2c732ad257cb1fb9c5e4&#45;&gt;place_bb73aaafa1596e5425dc514a361ad4ef658f2758</title>
<path fill="none" stroke="#333333" d="M477.75,-288.36C503.62,-280.97 539.34,-270.76 566.36,-263.04"/>
<polygon fill="#333333" stroke="#333333" points="566.97,-264.69 571.29,-261.63 566.01,-261.32 566.97,-264.69"/>
<text text-anchor="middle" x="524.5" y="-283.8" font-family="Arial" font-size="9.00">upload</text>
</g>
<!-- place_817248fb77fb5c2cef3f2c732ad257cb1fb9c5e4&#45;&gt;place_5f5f8758f5f22d523e531f58123b6db9161683a4 -->
<g id="edge11" class="edge">
<title>place_817248fb77fb5c2cef3f2c732ad257cb1fb9c5e4&#45;&gt;place_5f5f8758f5f22d523e531f58123b6db9161683a4</title>
<path fill="none" stroke="#333333" d="M478.74,-304.14C511.26,-309.36 561.26,-316 605,-316 605,-316 605,-316 1076.33,-316 1114.45,-316 1156.42,-303.87 1185.72,-293.32"/>
<polygon fill="#333333" stroke="#333333" points="1186.58,-294.87 1190.67,-291.5 1185.38,-291.58 1186.58,-294.87"/>
<text text-anchor="middle" x="829.5" y="-318.8" font-family="Arial" font-size="9.00">failed</text>
</g>
<!-- place_bb73aaafa1596e5425dc514a361ad4ef658f2758&#45;&gt;place_3a47bc9ccd1fcb4960be12d43b2dd3ff152c1784 -->
<g id="edge12" class="edge">
<title>place_bb73aaafa1596e5425dc514a361ad4ef658f2758&#45;&gt;place_3a47bc9ccd1fcb4960be12d43b2dd3ff152c1784</title>
<path fill="none" stroke="#333333" d="M640.89,-241.83C661.27,-235.72 687.27,-227.92 708.43,-221.57"/>
<polygon fill="#333333" stroke="#333333" points="709.14,-223.19 713.42,-220.07 708.13,-219.83 709.14,-223.19"/>
<text text-anchor="middle" x="677" y="-238.8" font-family="Arial" font-size="9.00">cleanup</text>
</g>
<!-- place_bb73aaafa1596e5425dc514a361ad4ef658f2758&#45;&gt;place_5f5f8758f5f22d523e531f58123b6db9161683a4 -->
<g id="edge13" class="edge">
<title>place_bb73aaafa1596e5425dc514a361ad4ef658f2758&#45;&gt;place_5f5f8758f5f22d523e531f58123b6db9161683a4</title>
<path fill="none" stroke="#333333" d="M640.91,-261.9C669.06,-269.25 710.29,-278 747,-278 747,-278 747,-278 1076.33,-278 1112.52,-278 1153.72,-278 1183.27,-278"/>
<polygon fill="#333333" stroke="#333333" points="1183.28,-279.75 1188.28,-278 1183.28,-276.25 1183.28,-279.75"/>
<text text-anchor="middle" x="911.66" y="-280.8" font-family="Arial" font-size="9.00">failed</text>
</g>
<!-- place_3a47bc9ccd1fcb4960be12d43b2dd3ff152c1784&#45;&gt;place_97d71cd74ed03f9adda9ea79841f70fd9c524e0a -->
<g id="edge14" class="edge">
<title>place_3a47bc9ccd1fcb4960be12d43b2dd3ff152c1784&#45;&gt;place_97d71cd74ed03f9adda9ea79841f70fd9c524e0a</title>
<path fill="none" stroke="#333333" d="M782.11,-198.12C808.11,-188.79 844.38,-175.78 871.76,-165.96"/>
<polygon fill="#333333" stroke="#333333" points="872.65,-167.5 876.77,-164.16 871.47,-164.2 872.65,-167.5"/>
<text text-anchor="middle" x="829.5" y="-192.8" font-family="Arial" font-size="9.00">health_check</text>
</g>
<!-- place_3a47bc9ccd1fcb4960be12d43b2dd3ff152c1784&#45;&gt;place_5f5f8758f5f22d523e531f58123b6db9161683a4 -->
<g id="edge15" class="edge">
<title>place_3a47bc9ccd1fcb4960be12d43b2dd3ff152c1784&#45;&gt;place_5f5f8758f5f22d523e531f58123b6db9161683a4</title>
<path fill="none" stroke="#333333" d="M783.93,-212.92C856.42,-219.32 1028.29,-236.26 1170.33,-264 1174.92,-264.9 1179.71,-265.97 1184.45,-267.11"/>
<polygon fill="#333333" stroke="#333333" points="1184.28,-268.87 1189.55,-268.37 1185.12,-265.47 1184.28,-268.87"/>
<text text-anchor="middle" x="993.83" y="-242.8" font-family="Arial" font-size="9.00">failed</text>
</g>
<!-- place_e8a7d6f2bc4132a0f764d5e084371ff67d21a516 -->
<g id="node8" class="node">
<title>place_e8a7d6f2bc4132a0f764d5e084371ff67d21a516</title>
<ellipse fill="none" stroke="#333333" cx="1075.33" cy="-126" rx="36" ry="36"/>
<text text-anchor="middle" x="1075.33" y="-123.8" font-family="Arial" font-size="9.00">repair</text>
</g>
<!-- place_97d71cd74ed03f9adda9ea79841f70fd9c524e0a&#45;&gt;place_e8a7d6f2bc4132a0f764d5e084371ff67d21a516 -->
<g id="edge19" class="edge">
<title>place_97d71cd74ed03f9adda9ea79841f70fd9c524e0a&#45;&gt;place_e8a7d6f2bc4132a0f764d5e084371ff67d21a516</title>
<path fill="none" stroke="#333333" d="M948.14,-146.29C973.59,-142.2 1007.89,-136.68 1034.32,-132.44"/>
<polygon fill="#333333" stroke="#333333" points="1034.83,-134.12 1039.49,-131.6 1034.27,-130.67 1034.83,-134.12"/>
<text text-anchor="middle" x="993.83" y="-145.8" font-family="Arial" font-size="9.00">repair</text>
</g>
<!-- place_b96cfac54be615490f0d0dab6adbf7cbb9f04428 -->
<g id="node9" class="node">
<title>place_b96cfac54be615490f0d0dab6adbf7cbb9f04428</title>
<ellipse fill="none" stroke="#333333" cx="1075.33" cy="-36" rx="36" ry="36"/>
<text text-anchor="middle" x="1075.33" y="-33.8" font-family="Arial" font-size="9.00">forget</text>
</g>
<!-- place_97d71cd74ed03f9adda9ea79841f70fd9c524e0a&#45;&gt;place_b96cfac54be615490f0d0dab6adbf7cbb9f04428 -->
<g id="edge18" class="edge">
<title>place_97d71cd74ed03f9adda9ea79841f70fd9c524e0a&#45;&gt;place_b96cfac54be615490f0d0dab6adbf7cbb9f04428</title>
<path fill="none" stroke="#333333" d="M939.02,-127.51C947.52,-120.01 957.12,-111.91 966.33,-105 989.75,-87.42 1017.64,-69.67 1039.21,-56.58"/>
<polygon fill="#333333" stroke="#333333" points="1040.34,-57.94 1043.72,-53.86 1038.53,-54.95 1040.34,-57.94"/>
<text text-anchor="middle" x="993.83" y="-107.8" font-family="Arial" font-size="9.00">forget</text>
</g>
<!-- place_97d71cd74ed03f9adda9ea79841f70fd9c524e0a&#45;&gt;place_5f5f8758f5f22d523e531f58123b6db9161683a4 -->
<g id="edge20" class="edge">
<title>place_97d71cd74ed03f9adda9ea79841f70fd9c524e0a&#45;&gt;place_5f5f8758f5f22d523e531f58123b6db9161683a4</title>
<path fill="none" stroke="#333333" d="M948.38,-155.52C1000.43,-161.96 1098.72,-179.17 1170.33,-222 1180.68,-228.19 1190.31,-236.97 1198.45,-245.74"/>
<polygon fill="#333333" stroke="#333333" points="1197.19,-246.95 1201.84,-249.49 1199.79,-244.6 1197.19,-246.95"/>
<text text-anchor="middle" x="1075.33" y="-195.8" font-family="Arial" font-size="9.00">failed</text>
</g>
<!-- place_e8a7d6f2bc4132a0f764d5e084371ff67d21a516&#45;&gt;place_97d71cd74ed03f9adda9ea79841f70fd9c524e0a -->
<g id="edge16" class="edge">
<title>place_e8a7d6f2bc4132a0f764d5e084371ff67d21a516&#45;&gt;place_97d71cd74ed03f9adda9ea79841f70fd9c524e0a</title>
<path fill="none" stroke="#333333" d="M1039.75,-120.3C1018.3,-117.92 990.33,-116.93 966.33,-123 959.95,-124.61 953.5,-127.15 947.4,-130.07"/>
<polygon fill="#333333" stroke="#333333" points="946.49,-128.57 942.8,-132.37 948.06,-131.7 946.49,-128.57"/>
<text text-anchor="middle" x="993.83" y="-125.8" font-family="Arial" font-size="9.00">health_check</text>
</g>
<!-- place_e8a7d6f2bc4132a0f764d5e084371ff67d21a516&#45;&gt;place_5f5f8758f5f22d523e531f58123b6db9161683a4 -->
<g id="edge17" class="edge">
<title>place_e8a7d6f2bc4132a0f764d5e084371ff67d21a516&#45;&gt;place_5f5f8758f5f22d523e531f58123b6db9161683a4</title>
<path fill="none" stroke="#333333" d="M1109.99,-137.19C1129.51,-145.03 1153.49,-157.15 1170.33,-174 1188.44,-192.13 1201.59,-217.72 1210.26,-238.98"/>
<polygon fill="#333333" stroke="#333333" points="1208.67,-239.72 1212.15,-243.72 1211.93,-238.43 1208.67,-239.72"/>
<text text-anchor="middle" x="1149.83" y="-176.8" font-family="Arial" font-size="9.00">failed</text>
</g>
<!-- place_cdfd7e1942f8f8c2c4adfd9967d4c655bbbd99ab -->
<g id="node10" class="node">
<title>place_cdfd7e1942f8f8c2c4adfd9967d4c655bbbd99ab</title>
<ellipse fill="none" stroke="#333333" cx="1224.33" cy="-36" rx="36" ry="36"/>
<text text-anchor="middle" x="1224.33" y="-33.8" font-family="Arial" font-size="9.00">backuped</text>
</g>
<!-- place_b96cfac54be615490f0d0dab6adbf7cbb9f04428&#45;&gt;place_cdfd7e1942f8f8c2c4adfd9967d4c655bbbd99ab -->
<g id="edge21" class="edge">
<title>place_b96cfac54be615490f0d0dab6adbf7cbb9f04428&#45;&gt;place_cdfd7e1942f8f8c2c4adfd9967d4c655bbbd99ab</title>
<path fill="none" stroke="#333333" d="M1111.54,-36C1133.01,-36 1160.52,-36 1182.88,-36"/>
<polygon fill="#333333" stroke="#333333" points="1183.15,-37.75 1188.15,-36 1183.15,-34.25 1183.15,-37.75"/>
<text text-anchor="middle" x="1149.83" y="-38.8" font-family="Arial" font-size="9.00">backuped</text>
</g>
<!-- place_b96cfac54be615490f0d0dab6adbf7cbb9f04428&#45;&gt;place_5f5f8758f5f22d523e531f58123b6db9161683a4 -->
<g id="edge22" class="edge">
<title>place_b96cfac54be615490f0d0dab6adbf7cbb9f04428&#45;&gt;place_5f5f8758f5f22d523e531f58123b6db9161683a4</title>
<path fill="none" stroke="#333333" d="M1103.83,-58.65C1124.51,-76.9 1152.26,-104.19 1170.33,-133 1190.85,-165.74 1205.07,-207.58 1213.57,-237.9"/>
<polygon fill="#333333" stroke="#333333" points="1211.97,-238.69 1214.99,-243.04 1215.35,-237.76 1211.97,-238.69"/>
<text text-anchor="middle" x="1149.83" y="-135.8" font-family="Arial" font-size="9.00">failed</text>
</g>
</g>
</svg>
