<?xml version="1.0" encoding="UTF-8" standalone="no"?>
<!DOCTYPE svg PUBLIC "-//W3C//DTD SVG 1.1//EN"
 "http://www.w3.org/Graphics/SVG/1.1/DTD/svg11.dtd">
<!-- Generated by graphviz version 2.40.1 (20161225.0304)
 -->
<!-- Title: workflow Pages: 1 -->
<svg width="1079pt" height="352pt"
 viewBox="0.00 0.00 1079.33 351.66" xmlns="http://www.w3.org/2000/svg" xmlns:xlink="http://www.w3.org/1999/xlink">
<g id="graph0" class="graph" transform="scale(1 1) rotate(0) translate(4 347.6642)">
<title>workflow</title>
<polygon fill="#ffffff" stroke="transparent" points="-4,4 -4,-347.6642 1075.3285,-347.6642 1075.3285,4 -4,4"/>
<!-- place_92f9552174fc81f2ab9e6c0c1c06b3e11706a32b -->
<g id="node1" class="node">
<title>place_92f9552174fc81f2ab9e6c0c1c06b3e11706a32b</title>
<ellipse fill="#add8e6" stroke="#333333" cx="36" cy="-301.6642" rx="36" ry="36"/>
<text text-anchor="middle" x="36" y="-299.4642" font-family="Arial" font-size="9.00" fill="#000000">initialized</text>
</g>
<!-- place_2b020927d3c6eb407223a1baa3d6ce3597a3f88d -->
<g id="node2" class="node">
<title>place_2b020927d3c6eb407223a1baa3d6ce3597a3f88d</title>
<ellipse fill="none" stroke="#333333" cx="162" cy="-250.6642" rx="36" ry="36"/>
<text text-anchor="middle" x="162" y="-248.4642" font-family="Arial" font-size="9.00" fill="#000000">start</text>
</g>
<!-- place_92f9552174fc81f2ab9e6c0c1c06b3e11706a32b&#45;&gt;place_2b020927d3c6eb407223a1baa3d6ce3597a3f88d -->
<g id="edge1" class="edge">
<title>place_92f9552174fc81f2ab9e6c0c1c06b3e11706a32b&#45;&gt;place_2b020927d3c6eb407223a1baa3d6ce3597a3f88d</title>
<path fill="none" stroke="#333333" d="M69.4349,-288.1311C86.0952,-281.3876 106.3229,-273.2002 123.6149,-266.2011"/>
<polygon fill="#333333" stroke="#333333" points="124.4307,-267.7588 128.4089,-264.2607 123.1175,-264.5145 124.4307,-267.7588"/>
<text text-anchor="middle" x="99" y="-281.4642" font-family="Arial" font-size="9.00" fill="#000000">start</text>
</g>
<!-- place_5f5f8758f5f22d523e531f58123b6db9161683a4 -->
<g id="node9" class="node">
<title>place_5f5f8758f5f22d523e531f58123b6db9161683a4</title>
<ellipse fill="none" stroke="#333333" cx="1035.3285" cy="-185.6642" rx="36" ry="36"/>
<text text-anchor="middle" x="1035.3285" y="-183.4642" font-family="Arial" font-size="9.00" fill="#000000">failed</text>
</g>
<!-- place_92f9552174fc81f2ab9e6c0c1c06b3e11706a32b&#45;&gt;place_5f5f8758f5f22d523e531f58123b6db9161683a4 -->
<g id="edge2" class="edge">
<title>place_92f9552174fc81f2ab9e6c0c1c06b3e11706a32b&#45;&gt;place_5f5f8758f5f22d523e531f58123b6db9161683a4</title>
<path fill="none" stroke="#333333" d="M69.6392,-315.0497C94.6892,-323.8185 129.9514,-333.6642 162,-333.6642 162,-333.6642 162,-333.6642 885.6642,-333.6642 934.7077,-333.6642 946.5753,-313.2688 981.3285,-278.6642 997.062,-262.998 1009.8309,-241.8179 1018.9942,-223.6274"/>
<polygon fill="#333333" stroke="#333333" points="1020.599,-224.3301 1021.2458,-219.0723 1017.4613,-222.7791 1020.599,-224.3301"/>
<text text-anchor="middle" x="511.5" y="-336.4642" font-family="Arial" font-size="9.00" fill="#000000">failed</text>
</g>
<!-- place_9567d1547e105470e4e53c1568f07a209e82a161 -->
<g id="node3" class="node">
<title>place_9567d1547e105470e4e53c1568f07a209e82a161</title>
<ellipse fill="none" stroke="#333333" cx="294" cy="-231.6642" rx="36" ry="36"/>
<text text-anchor="middle" x="294" y="-229.4642" font-family="Arial" font-size="9.00" fill="#000000">dump</text>
</g>
<!-- place_2b020927d3c6eb407223a1baa3d6ce3597a3f88d&#45;&gt;place_9567d1547e105470e4e53c1568f07a209e82a161 -->
<g id="edge3" class="edge">
<title>place_2b020927d3c6eb407223a1baa3d6ce3597a3f88d&#45;&gt;place_9567d1547e105470e4e53c1568f07a209e82a161</title>
<path fill="none" stroke="#333333" d="M197.7211,-245.5226C214.7429,-243.0725 235.1952,-240.1286 252.8634,-237.5854"/>
<polygon fill="#333333" stroke="#333333" points="253.5507,-239.2546 258.2503,-236.81 253.052,-235.7903 253.5507,-239.2546"/>
<text text-anchor="middle" x="228" y="-245.4642" font-family="Arial" font-size="9.00" fill="#000000">dump</text>
</g>
<!-- place_bb73aaafa1596e5425dc514a361ad4ef658f2758 -->
<g id="node5" class="node">
<title>place_bb73aaafa1596e5425dc514a361ad4ef658f2758</title>
<ellipse fill="none" stroke="#333333" cx="580" cy="-121.6642" rx="36" ry="36"/>
<text text-anchor="middle" x="580" y="-119.4642" font-family="Arial" font-size="9.00" fill="#000000">upload</text>
</g>
<!-- place_2b020927d3c6eb407223a1baa3d6ce3597a3f88d&#45;&gt;place_bb73aaafa1596e5425dc514a361ad4ef658f2758 -->
<g id="edge4" class="edge">
<title>place_2b020927d3c6eb407223a1baa3d6ce3597a3f88d&#45;&gt;place_bb73aaafa1596e5425dc514a361ad4ef658f2758</title>
<path fill="none" stroke="#333333" d="M191.5712,-229.3601C210.208,-216.3373 235.0131,-199.7299 258,-186.6642 296.5403,-164.7581 305.2766,-155.4942 348,-143.6642 413.0835,-125.6428 491.9263,-121.7692 538.9163,-121.2556"/>
<polygon fill="#333333" stroke="#333333" points="538.9392,-123.0055 543.9238,-121.2123 538.9088,-119.5056 538.9392,-123.0055"/>
<text text-anchor="middle" x="368.5" y="-146.4642" font-family="Arial" font-size="9.00" fill="#000000">upload</text>
</g>
<!-- place_2b020927d3c6eb407223a1baa3d6ce3597a3f88d&#45;&gt;place_5f5f8758f5f22d523e531f58123b6db9161683a4 -->
<g id="edge5" class="edge">
<title>place_2b020927d3c6eb407223a1baa3d6ce3597a3f88d&#45;&gt;place_5f5f8758f5f22d523e531f58123b6db9161683a4</title>
<path fill="none" stroke="#333333" d="M193.7896,-268.0624C219.9076,-280.7254 258.2877,-295.6642 294,-295.6642 294,-295.6642 294,-295.6642 885.6642,-295.6642 938.0321,-295.6642 984.1874,-251.3976 1010.9381,-219.0271"/>
<polygon fill="#333333" stroke="#333333" points="1012.3018,-220.1239 1014.1033,-215.1422 1009.5883,-217.9132 1012.3018,-220.1239"/>
<text text-anchor="middle" x="580" y="-298.4642" font-family="Arial" font-size="9.00" fill="#000000">failed</text>
</g>
<!-- place_817248fb77fb5c2cef3f2c732ad257cb1fb9c5e4 -->
<g id="node4" class="node">
<title>place_817248fb77fb5c2cef3f2c732ad257cb1fb9c5e4</title>
<ellipse fill="none" stroke="#333333" cx="443" cy="-231.6642" rx="36" ry="36"/>
<text text-anchor="middle" x="443" y="-229.4642" font-family="Arial" font-size="9.00" fill="#000000">download</text>
</g>
<!-- place_9567d1547e105470e4e53c1568f07a209e82a161&#45;&gt;place_817248fb77fb5c2cef3f2c732ad257cb1fb9c5e4 -->
<g id="edge6" class="edge">
<title>place_9567d1547e105470e4e53c1568f07a209e82a161&#45;&gt;place_817248fb77fb5c2cef3f2c732ad257cb1fb9c5e4</title>
<path fill="none" stroke="#333333" d="M330.0687,-231.6642C351.6879,-231.6642 379.253,-231.6642 401.7374,-231.6642"/>
<polygon fill="#333333" stroke="#333333" points="401.747,-233.4143 406.747,-231.6642 401.7469,-229.9143 401.747,-233.4143"/>
<text text-anchor="middle" x="368.5" y="-234.4642" font-family="Arial" font-size="9.00" fill="#000000">download</text>
</g>
<!-- place_9567d1547e105470e4e53c1568f07a209e82a161&#45;&gt;place_5f5f8758f5f22d523e531f58123b6db9161683a4 -->
<g id="edge7" class="edge">
<title>place_9567d1547e105470e4e53c1568f07a209e82a161&#45;&gt;place_5f5f8758f5f22d523e531f58123b6db9161683a4</title>
<path fill="none" stroke="#333333" d="M326.2163,-215.4738C348.3427,-205.2031 378.7163,-192.7429 407,-186.6642 513.0244,-163.8777 542.5546,-185.6642 651,-185.6642 651,-185.6642 651,-185.6642 885.6642,-185.6642 922.2622,-185.6642 963.8943,-185.6642 993.9419,-185.6642"/>
<polygon fill="#333333" stroke="#333333" points="994.0373,-187.4143 999.0373,-185.6642 994.0372,-183.9143 994.0373,-187.4143"/>
<text text-anchor="middle" x="651" y="-188.4642" font-family="Arial" font-size="9.00" fill="#000000">failed</text>
</g>
<!-- place_817248fb77fb5c2cef3f2c732ad257cb1fb9c5e4&#45;&gt;place_bb73aaafa1596e5425dc514a361ad4ef658f2758 -->
<g id="edge8" class="edge">
<title>place_817248fb77fb5c2cef3f2c732ad257cb1fb9c5e4&#45;&gt;place_bb73aaafa1596e5425dc514a361ad4ef658f2758</title>
<path fill="none" stroke="#333333" d="M471.3865,-208.8722C493.6132,-191.0259 524.5399,-166.1942 547.7097,-147.5907"/>
<polygon fill="#333333" stroke="#333333" points="548.8467,-148.9221 551.6499,-144.4271 546.6554,-146.193 548.8467,-148.9221"/>
<text text-anchor="middle" x="511.5" y="-188.4642" font-family="Arial" font-size="9.00" fill="#000000">upload</text>
</g>
<!-- place_817248fb77fb5c2cef3f2c732ad257cb1fb9c5e4&#45;&gt;place_5f5f8758f5f22d523e531f58123b6db9161683a4 -->
<g id="edge9" class="edge">
<title>place_817248fb77fb5c2cef3f2c732ad257cb1fb9c5e4&#45;&gt;place_5f5f8758f5f22d523e531f58123b6db9161683a4</title>
<path fill="none" stroke="#333333" d="M479.0562,-231.6642C506.6836,-231.6642 545.75,-231.6642 580,-231.6642 580,-231.6642 580,-231.6642 885.6642,-231.6642 925.4002,-231.6642 968.5557,-216.6656 998.2693,-203.7972"/>
<polygon fill="#333333" stroke="#333333" points="999.0471,-205.367 1002.9202,-201.7528 997.6386,-202.1629 999.0471,-205.367"/>
<text text-anchor="middle" x="722" y="-234.4642" font-family="Arial" font-size="9.00" fill="#000000">failed</text>
</g>
<!-- place_3a47bc9ccd1fcb4960be12d43b2dd3ff152c1784 -->
<g id="node6" class="node">
<title>place_3a47bc9ccd1fcb4960be12d43b2dd3ff152c1784</title>
<ellipse fill="none" stroke="#333333" cx="722" cy="-83.6642" rx="36" ry="36"/>
<text text-anchor="middle" x="722" y="-81.4642" font-family="Arial" font-size="9.00" fill="#000000">cleanup</text>
</g>
<!-- place_bb73aaafa1596e5425dc514a361ad4ef658f2758&#45;&gt;place_3a47bc9ccd1fcb4960be12d43b2dd3ff152c1784 -->
<g id="edge10" class="edge">
<title>place_bb73aaafa1596e5425dc514a361ad4ef658f2758&#45;&gt;place_3a47bc9ccd1fcb4960be12d43b2dd3ff152c1784</title>
<path fill="none" stroke="#333333" d="M615.1011,-112.271C635.3261,-106.8587 660.8252,-100.035 681.8462,-94.4096"/>
<polygon fill="#333333" stroke="#333333" points="682.4329,-96.0643 686.8105,-93.0811 681.5281,-92.6832 682.4329,-96.0643"/>
<text text-anchor="middle" x="651" y="-110.4642" font-family="Arial" font-size="9.00" fill="#000000">cleanup</text>
</g>
<!-- place_bb73aaafa1596e5425dc514a361ad4ef658f2758&#45;&gt;place_5f5f8758f5f22d523e531f58123b6db9161683a4 -->
<g id="edge11" class="edge">
<title>place_bb73aaafa1596e5425dc514a361ad4ef658f2758&#45;&gt;place_5f5f8758f5f22d523e531f58123b6db9161683a4</title>
<path fill="none" stroke="#333333" d="M615.947,-124.5665C686.4634,-130.6066 847.707,-146.1309 981.3285,-171.6642 985.9392,-172.5453 990.7398,-173.5946 995.4929,-174.7168"/>
<polygon fill="#333333" stroke="#333333" points="995.3494,-176.4826 1000.6208,-175.9586 996.1732,-173.0809 995.3494,-176.4826"/>
<text text-anchor="middle" x="803.5" y="-150.4642" font-family="Arial" font-size="9.00" fill="#000000">failed</text>
</g>
<!-- place_97d71cd74ed03f9adda9ea79841f70fd9c524e0a -->
<g id="node7" class="node">
<title>place_97d71cd74ed03f9adda9ea79841f70fd9c524e0a</title>
<ellipse fill="none" stroke="#333333" cx="885.6642" cy="-36.6642" rx="36.8292" ry="36.8292"/>
<text text-anchor="middle" x="885.6642" y="-34.4642" font-family="Arial" font-size="9.00" fill="#000000">health_check</text>
</g>
<!-- place_3a47bc9ccd1fcb4960be12d43b2dd3ff152c1784&#45;&gt;place_97d71cd74ed03f9adda9ea79841f70fd9c524e0a -->
<g id="edge12" class="edge">
<title>place_3a47bc9ccd1fcb4960be12d43b2dd3ff152c1784&#45;&gt;place_97d71cd74ed03f9adda9ea79841f70fd9c524e0a</title>
<path fill="none" stroke="#333333" d="M756.709,-73.6968C782.5909,-66.2641 818.0132,-56.0918 845.1845,-48.2889"/>
<polygon fill="#333333" stroke="#333333" points="845.8351,-49.9229 850.1578,-46.8607 844.869,-46.5589 845.8351,-49.9229"/>
<text text-anchor="middle" x="803.5" y="-70.4642" font-family="Arial" font-size="9.00" fill="#000000">health_check</text>
</g>
<!-- place_3a47bc9ccd1fcb4960be12d43b2dd3ff152c1784&#45;&gt;place_5f5f8758f5f22d523e531f58123b6db9161683a4 -->
<g id="edge13" class="edge">
<title>place_3a47bc9ccd1fcb4960be12d43b2dd3ff152c1784&#45;&gt;place_5f5f8758f5f22d523e531f58123b6db9161683a4</title>
<path fill="none" stroke="#333333" d="M758.0602,-84.2382C810.1672,-86.4331 908.2688,-95.7677 981.3285,-133.6642 991.1578,-138.7628 1000.418,-146.2157 1008.4017,-153.895"/>
<polygon fill="#333333" stroke="#333333" points="1007.4319,-155.3976 1012.2154,-157.6738 1009.8953,-152.9114 1007.4319,-155.3976"/>
<text text-anchor="middle" x="885.6642" y="-113.4642" font-family="Arial" font-size="9.00" fill="#000000">failed</text>
</g>
<!-- place_cdfd7e1942f8f8c2c4adfd9967d4c655bbbd99ab -->
<g id="node8" class="node">
<title>place_cdfd7e1942f8f8c2c4adfd9967d4c655bbbd99ab</title>
<ellipse fill="none" stroke="#333333" cx="1035.3285" cy="-36.6642" rx="36" ry="36"/>
<text text-anchor="middle" x="1035.3285" y="-34.4642" font-family="Arial" font-size="9.00" fill="#000000">backuped</text>
</g>
<!-- place_97d71cd74ed03f9adda9ea79841f70fd9c524e0a&#45;&gt;place_cdfd7e1942f8f8c2c4adfd9967d4c655bbbd99ab -->
<g id="edge14" class="edge">
<title>place_97d71cd74ed03f9adda9ea79841f70fd9c524e0a&#45;&gt;place_cdfd7e1942f8f8c2c4adfd9967d4c655bbbd99ab</title>
<path fill="none" stroke="#333333" d="M922.6599,-36.6642C944.2971,-36.6642 971.6614,-36.6642 994.0037,-36.6642"/>
<polygon fill="#333333" stroke="#333333" points="994.2749,-38.4143 999.2748,-36.6642 994.2748,-34.9143 994.2749,-38.4143"/>
<text text-anchor="middle" x="960.8285" y="-39.4642" font-family="Arial" font-size="9.00" fill="#000000">backuped</text>
</g>
<!-- place_97d71cd74ed03f9adda9ea79841f70fd9c524e0a&#45;&gt;place_5f5f8758f5f22d523e531f58123b6db9161683a4 -->
<g id="edge15" class="edge">
<title>place_97d71cd74ed03f9adda9ea79841f70fd9c524e0a&#45;&gt;place_5f5f8758f5f22d523e531f58123b6db9161683a4</title>
<path fill="none" stroke="#333333" d="M920.6922,-48.6358C940.3403,-56.7097 964.2563,-68.9597 981.3285,-85.6642 998.8235,-102.7826 1012.0434,-126.7928 1021.0232,-146.9957"/>
<polygon fill="#333333" stroke="#333333" points="1019.5028,-147.8879 1023.1011,-151.7756 1022.7126,-146.4925 1019.5028,-147.8879"/>
<text text-anchor="middle" x="960.8285" y="-88.4642" font-family="Arial" font-size="9.00" fill="#000000">failed</text>
</g>
</g>
</svg>
