<?xml version="1.0" encoding="UTF-8" standalone="no"?>
<!DOCTYPE svg PUBLIC "-//W3C//DTD SVG 1.1//EN"
 "http://www.w3.org/Graphics/SVG/1.1/DTD/svg11.dtd">
<!-- Generated by graphviz version 2.40.1 (20161225.0304)
 -->
<!-- Title: workflow Pages: 1 -->
<svg width="915pt" height="294pt"
 viewBox="0.00 0.00 915.00 294.00" xmlns="http://www.w3.org/2000/svg" xmlns:xlink="http://www.w3.org/1999/xlink">
<g id="graph0" class="graph" transform="scale(1 1) rotate(0) translate(4 290)">
<title>workflow</title>
<polygon fill="#ffffff" stroke="transparent" points="-4,4 -4,-290 911,-290 911,4 -4,4"/>
<!-- place_92f9552174fc81f2ab9e6c0c1c06b3e11706a32b -->
<g id="node1" class="node">
<title>place_92f9552174fc81f2ab9e6c0c1c06b3e11706a32b</title>
<ellipse fill="#add8e6" stroke="#333333" cx="36" cy="-244" rx="36" ry="36"/>
<text text-anchor="middle" x="36" y="-241.8" font-family="Arial" font-size="9.00" fill="#000000">initialized</text>
</g>
<!-- place_2b020927d3c6eb407223a1baa3d6ce3597a3f88d -->
<g id="node2" class="node">
<title>place_2b020927d3c6eb407223a1baa3d6ce3597a3f88d</title>
<ellipse fill="none" stroke="#333333" cx="162" cy="-189" rx="36" ry="36"/>
<text text-anchor="middle" x="162" y="-186.8" font-family="Arial" font-size="9.00" fill="#000000">start</text>
</g>
<!-- place_92f9552174fc81f2ab9e6c0c1c06b3e11706a32b&#45;&gt;place_2b020927d3c6eb407223a1baa3d6ce3597a3f88d -->
<g id="edge1" class="edge">
<title>place_92f9552174fc81f2ab9e6c0c1c06b3e11706a32b&#45;&gt;place_2b020927d3c6eb407223a1baa3d6ce3597a3f88d</title>
<path fill="none" stroke="#333333" d="M69.105,-229.5494C85.9001,-222.2182 106.3854,-213.2762 123.8411,-205.6567"/>
<polygon fill="#333333" stroke="#333333" points="124.7963,-207.1492 128.6786,-203.545 123.396,-203.9415 124.7963,-207.1492"/>
<text text-anchor="middle" x="99" y="-221.8" font-family="Arial" font-size="9.00" fill="#000000">start</text>
</g>
<!-- place_5f5f8758f5f22d523e531f58123b6db9161683a4 -->
<g id="node8" class="node">
<title>place_5f5f8758f5f22d523e531f58123b6db9161683a4</title>
<ellipse fill="none" stroke="#333333" cx="871" cy="-169" rx="36" ry="36"/>
<text text-anchor="middle" x="871" y="-166.8" font-family="Arial" font-size="9.00" fill="#000000">failed</text>
</g>
<!-- place_92f9552174fc81f2ab9e6c0c1c06b3e11706a32b&#45;&gt;place_5f5f8758f5f22d523e531f58123b6db9161683a4 -->
<g id="edge2" class="edge">
<title>place_92f9552174fc81f2ab9e6c0c1c06b3e11706a32b&#45;&gt;place_5f5f8758f5f22d523e531f58123b6db9161683a4</title>
<path fill="none" stroke="#333333" d="M69.6392,-257.3855C94.6892,-266.1543 129.9514,-276 162,-276 162,-276 162,-276 722,-276 773.3566,-276 819.1352,-233.5424 845.985,-202.117"/>
<polygon fill="#333333" stroke="#333333" points="847.606,-202.9085 849.4858,-197.9557 844.9278,-200.6552 847.606,-202.9085"/>
<text text-anchor="middle" x="443" y="-278.8" font-family="Arial" font-size="9.00" fill="#000000">failed</text>
</g>
<!-- place_9567d1547e105470e4e53c1568f07a209e82a161 -->
<g id="node3" class="node">
<title>place_9567d1547e105470e4e53c1568f07a209e82a161</title>
<ellipse fill="none" stroke="#333333" cx="294" cy="-166" rx="36" ry="36"/>
<text text-anchor="middle" x="294" y="-163.8" font-family="Arial" font-size="9.00" fill="#000000">dump</text>
</g>
<!-- place_2b020927d3c6eb407223a1baa3d6ce3597a3f88d&#45;&gt;place_9567d1547e105470e4e53c1568f07a209e82a161 -->
<g id="edge3" class="edge">
<title>place_2b020927d3c6eb407223a1baa3d6ce3597a3f88d&#45;&gt;place_9567d1547e105470e4e53c1568f07a209e82a161</title>
<path fill="none" stroke="#333333" d="M197.7211,-182.7759C214.8896,-179.7844 235.5481,-176.1848 253.3197,-173.0882"/>
<polygon fill="#333333" stroke="#333333" points="253.625,-174.8115 258.2503,-172.2291 253.0241,-171.3634 253.625,-174.8115"/>
<text text-anchor="middle" x="228" y="-181.8" font-family="Arial" font-size="9.00" fill="#000000">dump</text>
</g>
<!-- place_bb73aaafa1596e5425dc514a361ad4ef658f2758 -->
<g id="node5" class="node">
<title>place_bb73aaafa1596e5425dc514a361ad4ef658f2758</title>
<ellipse fill="none" stroke="#333333" cx="580" cy="-73" rx="36" ry="36"/>
<text text-anchor="middle" x="580" y="-70.8" font-family="Arial" font-size="9.00" fill="#000000">upload</text>
</g>
<!-- place_2b020927d3c6eb407223a1baa3d6ce3597a3f88d&#45;&gt;place_bb73aaafa1596e5425dc514a361ad4ef658f2758 -->
<g id="edge4" class="edge">
<title>place_2b020927d3c6eb407223a1baa3d6ce3597a3f88d&#45;&gt;place_bb73aaafa1596e5425dc514a361ad4ef658f2758</title>
<path fill="none" stroke="#333333" d="M189.7013,-165.2132C208.0192,-150.5766 233.1574,-132.4838 258,-121 351.565,-77.7485 475.2366,-71.761 538.6344,-71.8945"/>
<polygon fill="#333333" stroke="#333333" points="538.8279,-73.6454 543.8363,-71.9196 538.8448,-70.1454 538.8279,-73.6454"/>
<text text-anchor="middle" x="368.5" y="-93.8" font-family="Arial" font-size="9.00" fill="#000000">upload</text>
</g>
<!-- place_2b020927d3c6eb407223a1baa3d6ce3597a3f88d&#45;&gt;place_5f5f8758f5f22d523e531f58123b6db9161683a4 -->
<g id="edge5" class="edge">
<title>place_2b020927d3c6eb407223a1baa3d6ce3597a3f88d&#45;&gt;place_5f5f8758f5f22d523e531f58123b6db9161683a4</title>
<path fill="none" stroke="#333333" d="M194.4954,-205.0866C220.6975,-216.573 258.8449,-230 294,-230 294,-230 294,-230 722,-230 763.656,-230 807.3068,-209.328 836.5132,-192.052"/>
<polygon fill="#333333" stroke="#333333" points="837.6892,-193.3871 841.0741,-189.3121 835.8868,-190.3868 837.6892,-193.3871"/>
<text text-anchor="middle" x="511.5" y="-232.8" font-family="Arial" font-size="9.00" fill="#000000">failed</text>
</g>
<!-- place_817248fb77fb5c2cef3f2c732ad257cb1fb9c5e4 -->
<g id="node4" class="node">
<title>place_817248fb77fb5c2cef3f2c732ad257cb1fb9c5e4</title>
<ellipse fill="none" stroke="#333333" cx="443" cy="-128" rx="36" ry="36"/>
<text text-anchor="middle" x="443" y="-125.8" font-family="Arial" font-size="9.00" fill="#000000">download</text>
</g>
<!-- place_9567d1547e105470e4e53c1568f07a209e82a161&#45;&gt;place_817248fb77fb5c2cef3f2c732ad257cb1fb9c5e4 -->
<g id="edge6" class="edge">
<title>place_9567d1547e105470e4e53c1568f07a209e82a161&#45;&gt;place_817248fb77fb5c2cef3f2c732ad257cb1fb9c5e4</title>
<path fill="none" stroke="#333333" d="M328.9339,-157.0907C351.0849,-151.4414 379.81,-144.1156 402.8921,-138.2288"/>
<polygon fill="#333333" stroke="#333333" points="403.6147,-139.8507 408.0271,-136.9193 402.7497,-136.4592 403.6147,-139.8507"/>
<text text-anchor="middle" x="368.5" y="-153.8" font-family="Arial" font-size="9.00" fill="#000000">download</text>
</g>
<!-- place_9567d1547e105470e4e53c1568f07a209e82a161&#45;&gt;place_5f5f8758f5f22d523e531f58123b6db9161683a4 -->
<g id="edge7" class="edge">
<title>place_9567d1547e105470e4e53c1568f07a209e82a161&#45;&gt;place_5f5f8758f5f22d523e531f58123b6db9161683a4</title>
<path fill="none" stroke="#333333" d="M328.9234,-175.6076C358.9304,-183.014 403.4803,-192 443,-192 443,-192 443,-192 722,-192 759.2382,-192 801.1051,-184.8965 830.9551,-178.5849"/>
<polygon fill="#333333" stroke="#333333" points="831.4907,-180.2599 836.0118,-177.499 830.7558,-176.8379 831.4907,-180.2599"/>
<text text-anchor="middle" x="580" y="-194.8" font-family="Arial" font-size="9.00" fill="#000000">failed</text>
</g>
<!-- place_817248fb77fb5c2cef3f2c732ad257cb1fb9c5e4&#45;&gt;place_bb73aaafa1596e5425dc514a361ad4ef658f2758 -->
<g id="edge8" class="edge">
<title>place_817248fb77fb5c2cef3f2c732ad257cb1fb9c5e4&#45;&gt;place_bb73aaafa1596e5425dc514a361ad4ef658f2758</title>
<path fill="none" stroke="#333333" d="M476.514,-114.5455C496.1682,-106.6551 521.0753,-96.6559 541.5288,-88.4446"/>
<polygon fill="#333333" stroke="#333333" points="542.3691,-89.9931 546.3572,-86.5062 541.0652,-86.7451 542.3691,-89.9931"/>
<text text-anchor="middle" x="511.5" y="-107.8" font-family="Arial" font-size="9.00" fill="#000000">upload</text>
</g>
<!-- place_817248fb77fb5c2cef3f2c732ad257cb1fb9c5e4&#45;&gt;place_5f5f8758f5f22d523e531f58123b6db9161683a4 -->
<g id="edge9" class="edge">
<title>place_817248fb77fb5c2cef3f2c732ad257cb1fb9c5e4&#45;&gt;place_5f5f8758f5f22d523e531f58123b6db9161683a4</title>
<path fill="none" stroke="#333333" d="M479.1222,-131.4603C558.2008,-139.0356 746.2342,-157.0481 829.7761,-165.051"/>
<polygon fill="#333333" stroke="#333333" points="829.9814,-166.8286 835.1255,-165.5634 830.3152,-163.3445 829.9814,-166.8286"/>
<text text-anchor="middle" x="651" y="-151.8" font-family="Arial" font-size="9.00" fill="#000000">failed</text>
</g>
<!-- place_3a47bc9ccd1fcb4960be12d43b2dd3ff152c1784 -->
<g id="node6" class="node">
<title>place_3a47bc9ccd1fcb4960be12d43b2dd3ff152c1784</title>
<ellipse fill="none" stroke="#333333" cx="722" cy="-36" rx="36" ry="36"/>
<text text-anchor="middle" x="722" y="-33.8" font-family="Arial" font-size="9.00" fill="#000000">cleanup</text>
</g>
<!-- place_bb73aaafa1596e5425dc514a361ad4ef658f2758&#45;&gt;place_3a47bc9ccd1fcb4960be12d43b2dd3ff152c1784 -->
<g id="edge10" class="edge">
<title>place_bb73aaafa1596e5425dc514a361ad4ef658f2758&#45;&gt;place_3a47bc9ccd1fcb4960be12d43b2dd3ff152c1784</title>
<path fill="none" stroke="#333333" d="M615.1011,-63.8539C635.3261,-58.584 660.8252,-51.9399 681.8462,-46.4626"/>
<polygon fill="#333333" stroke="#333333" points="682.4134,-48.1233 686.8105,-45.1691 681.5308,-44.7364 682.4134,-48.1233"/>
<text text-anchor="middle" x="651" y="-61.8" font-family="Arial" font-size="9.00" fill="#000000">cleanup</text>
</g>
<!-- place_bb73aaafa1596e5425dc514a361ad4ef658f2758&#45;&gt;place_5f5f8758f5f22d523e531f58123b6db9161683a4 -->
<g id="edge11" class="edge">
<title>place_bb73aaafa1596e5425dc514a361ad4ef658f2758&#45;&gt;place_5f5f8758f5f22d523e531f58123b6db9161683a4</title>
<path fill="none" stroke="#333333" d="M615.838,-77.847C663.4194,-85.1816 749.3174,-101.5839 817,-132 824.0748,-135.1794 831.2154,-139.2933 837.8838,-143.6175"/>
<polygon fill="#333333" stroke="#333333" points="837.2865,-145.3221 842.4185,-146.6359 839.2259,-142.4085 837.2865,-145.3221"/>
<text text-anchor="middle" x="722" y="-111.8" font-family="Arial" font-size="9.00" fill="#000000">failed</text>
</g>
<!-- place_cdfd7e1942f8f8c2c4adfd9967d4c655bbbd99ab -->
<g id="node7" class="node">
<title>place_cdfd7e1942f8f8c2c4adfd9967d4c655bbbd99ab</title>
<ellipse fill="none" stroke="#333333" cx="871" cy="-36" rx="36" ry="36"/>
<text text-anchor="middle" x="871" y="-33.8" font-family="Arial" font-size="9.00" fill="#000000">backuped</text>
</g>
<!-- place_3a47bc9ccd1fcb4960be12d43b2dd3ff152c1784&#45;&gt;place_cdfd7e1942f8f8c2c4adfd9967d4c655bbbd99ab -->
<g id="edge12" class="edge">
<title>place_3a47bc9ccd1fcb4960be12d43b2dd3ff152c1784&#45;&gt;place_cdfd7e1942f8f8c2c4adfd9967d4c655bbbd99ab</title>
<path fill="none" stroke="#333333" d="M758.0687,-36C779.6879,-36 807.253,-36 829.7374,-36"/>
<polygon fill="#333333" stroke="#333333" points="829.747,-37.7501 834.747,-36 829.7469,-34.2501 829.747,-37.7501"/>
<text text-anchor="middle" x="796.5" y="-38.8" font-family="Arial" font-size="9.00" fill="#000000">backuped</text>
</g>
<!-- place_3a47bc9ccd1fcb4960be12d43b2dd3ff152c1784&#45;&gt;place_5f5f8758f5f22d523e531f58123b6db9161683a4 -->
<g id="edge13" class="edge">
<title>place_3a47bc9ccd1fcb4960be12d43b2dd3ff152c1784&#45;&gt;place_5f5f8758f5f22d523e531f58123b6db9161683a4</title>
<path fill="none" stroke="#333333" d="M756.3561,-48.0864C775.7249,-56.1152 799.4749,-68.1152 817,-84 831.6823,-97.308 843.9489,-115.4941 853.0608,-131.63"/>
<polygon fill="#333333" stroke="#333333" points="851.594,-132.5938 855.5465,-136.121 854.6563,-130.8989 851.594,-132.5938"/>
<text text-anchor="middle" x="796.5" y="-86.8" font-family="Arial" font-size="9.00" fill="#000000">failed</text>
</g>
</g>
</svg>
