<?xml version="1.0" encoding="UTF-8" standalone="no"?>
<!DOCTYPE svg PUBLIC "-//W3C//DTD SVG 1.1//EN"
 "http://www.w3.org/Graphics/SVG/1.1/DTD/svg11.dtd">
<!-- Generated by graphviz version 2.40.1 (20161225.0304)
 -->
<!-- Title: workflow Pages: 1 -->
<svg width="1105pt" height="336pt"
 viewBox="0.00 0.00 1105.33 335.66" xmlns="http://www.w3.org/2000/svg" xmlns:xlink="http://www.w3.org/1999/xlink">
<g id="graph0" class="graph" transform="scale(1 1) rotate(0) translate(4 331.6642)">
<title>workflow</title>
<polygon fill="#ffffff" stroke="transparent" points="-4,4 -4,-331.6642 1101.3285,-331.6642 1101.3285,4 -4,4"/>
<!-- place_92f9552174fc81f2ab9e6c0c1c06b3e11706a32b -->
<g id="node1" class="node">
<title>place_92f9552174fc81f2ab9e6c0c1c06b3e11706a32b</title>
<ellipse fill="#add8e6" stroke="#333333" cx="36" cy="-234.6642" rx="36" ry="36"/>
<text text-anchor="middle" x="36" y="-232.4642" font-family="Arial" font-size="9.00" fill="#000000">initialized</text>
</g>
<!-- place_2b020927d3c6eb407223a1baa3d6ce3597a3f88d -->
<g id="node2" class="node">
<title>place_2b020927d3c6eb407223a1baa3d6ce3597a3f88d</title>
<ellipse fill="none" stroke="#333333" cx="162" cy="-132.6642" rx="36" ry="36"/>
<text text-anchor="middle" x="162" y="-130.4642" font-family="Arial" font-size="9.00" fill="#000000">start</text>
</g>
<!-- place_92f9552174fc81f2ab9e6c0c1c06b3e11706a32b&#45;&gt;place_2b020927d3c6eb407223a1baa3d6ce3597a3f88d -->
<g id="edge1" class="edge">
<title>place_92f9552174fc81f2ab9e6c0c1c06b3e11706a32b&#45;&gt;place_2b020927d3c6eb407223a1baa3d6ce3597a3f88d</title>
<path fill="none" stroke="#333333" d="M64.2769,-211.7735C83.7311,-196.0248 109.6095,-175.0756 129.8485,-158.6917"/>
<polygon fill="#333333" stroke="#333333" points="131.0324,-159.9848 133.8175,-155.4786 128.8302,-157.2645 131.0324,-159.9848"/>
<text text-anchor="middle" x="99" y="-192.4642" font-family="Arial" font-size="9.00" fill="#000000">start</text>
</g>
<!-- place_5f5f8758f5f22d523e531f58123b6db9161683a4 -->
<g id="node9" class="node">
<title>place_5f5f8758f5f22d523e531f58123b6db9161683a4</title>
<ellipse fill="none" stroke="#333333" cx="1061.3285" cy="-185.6642" rx="36" ry="36"/>
<text text-anchor="middle" x="1061.3285" y="-183.4642" font-family="Arial" font-size="9.00" fill="#000000">failed</text>
</g>
<!-- place_92f9552174fc81f2ab9e6c0c1c06b3e11706a32b&#45;&gt;place_5f5f8758f5f22d523e531f58123b6db9161683a4 -->
<g id="edge2" class="edge">
<title>place_92f9552174fc81f2ab9e6c0c1c06b3e11706a32b&#45;&gt;place_5f5f8758f5f22d523e531f58123b6db9161683a4</title>
<path fill="none" stroke="#333333" d="M59.5051,-262.302C82.8017,-286.4468 120.8745,-317.6642 162,-317.6642 162,-317.6642 162,-317.6642 911.6642,-317.6642 969.759,-317.6642 1015.9605,-261.0305 1040.924,-221.9548"/>
<polygon fill="#333333" stroke="#333333" points="1042.6824,-222.4459 1043.8624,-217.2815 1039.7194,-220.5828 1042.6824,-222.4459"/>
<text text-anchor="middle" x="524.5" y="-320.4642" font-family="Arial" font-size="9.00" fill="#000000">failed</text>
</g>
<!-- place_9567d1547e105470e4e53c1568f07a209e82a161 -->
<g id="node3" class="node">
<title>place_9567d1547e105470e4e53c1568f07a209e82a161</title>
<ellipse fill="none" stroke="#333333" cx="294" cy="-215.6642" rx="36" ry="36"/>
<text text-anchor="middle" x="294" y="-213.4642" font-family="Arial" font-size="9.00" fill="#000000">dump</text>
</g>
<!-- place_2b020927d3c6eb407223a1baa3d6ce3597a3f88d&#45;&gt;place_9567d1547e105470e4e53c1568f07a209e82a161 -->
<g id="edge3" class="edge">
<title>place_2b020927d3c6eb407223a1baa3d6ce3597a3f88d&#45;&gt;place_9567d1547e105470e4e53c1568f07a209e82a161</title>
<path fill="none" stroke="#333333" d="M192.6152,-151.9147C212.3818,-164.3437 238.1604,-180.553 258.7766,-193.5162"/>
<polygon fill="#333333" stroke="#333333" points="257.9292,-195.0505 263.0935,-196.2306 259.7923,-192.0876 257.9292,-195.0505"/>
<text text-anchor="middle" x="228" y="-183.4642" font-family="Arial" font-size="9.00" fill="#000000">dump</text>
</g>
<!-- place_bb73aaafa1596e5425dc514a361ad4ef658f2758 -->
<g id="node5" class="node">
<title>place_bb73aaafa1596e5425dc514a361ad4ef658f2758</title>
<ellipse fill="none" stroke="#333333" cx="606" cy="-113.6642" rx="36" ry="36"/>
<text text-anchor="middle" x="606" y="-111.4642" font-family="Arial" font-size="9.00" fill="#000000">upload</text>
</g>
<!-- place_2b020927d3c6eb407223a1baa3d6ce3597a3f88d&#45;&gt;place_bb73aaafa1596e5425dc514a361ad4ef658f2758 -->
<g id="edge4" class="edge">
<title>place_2b020927d3c6eb407223a1baa3d6ce3597a3f88d&#45;&gt;place_bb73aaafa1596e5425dc514a361ad4ef658f2758</title>
<path fill="none" stroke="#333333" d="M198.3344,-131.1094C280.1694,-127.6074 478.4905,-119.1207 564.7656,-115.4288"/>
<polygon fill="#333333" stroke="#333333" points="564.8657,-117.1762 569.7863,-115.2139 564.716,-113.6794 564.8657,-117.1762"/>
<text text-anchor="middle" x="368.5" y="-127.4642" font-family="Arial" font-size="9.00" fill="#000000">upload</text>
</g>
<!-- place_3a47bc9ccd1fcb4960be12d43b2dd3ff152c1784 -->
<g id="node6" class="node">
<title>place_3a47bc9ccd1fcb4960be12d43b2dd3ff152c1784</title>
<ellipse fill="none" stroke="#333333" cx="748" cy="-75.6642" rx="36" ry="36"/>
<text text-anchor="middle" x="748" y="-73.4642" font-family="Arial" font-size="9.00" fill="#000000">cleanup</text>
</g>
<!-- place_2b020927d3c6eb407223a1baa3d6ce3597a3f88d&#45;&gt;place_3a47bc9ccd1fcb4960be12d43b2dd3ff152c1784 -->
<g id="edge5" class="edge">
<title>place_2b020927d3c6eb407223a1baa3d6ce3597a3f88d&#45;&gt;place_3a47bc9ccd1fcb4960be12d43b2dd3ff152c1784</title>
<path fill="none" stroke="#333333" d="M186.4179,-105.4869C210.9716,-81.2806 251.2286,-49.6642 294,-49.6642 294,-49.6642 294,-49.6642 606,-49.6642 640.9193,-49.6642 679.8905,-57.3657 708.1597,-64.3855"/>
<polygon fill="#333333" stroke="#333333" points="708.034,-66.1586 713.3103,-65.6863 708.8911,-62.7652 708.034,-66.1586"/>
<text text-anchor="middle" x="443" y="-52.4642" font-family="Arial" font-size="9.00" fill="#000000">cleanup</text>
</g>
<!-- place_97d71cd74ed03f9adda9ea79841f70fd9c524e0a -->
<g id="node7" class="node">
<title>place_97d71cd74ed03f9adda9ea79841f70fd9c524e0a</title>
<ellipse fill="none" stroke="#333333" cx="911.6642" cy="-36.6642" rx="36.8292" ry="36.8292"/>
<text text-anchor="middle" x="911.6642" y="-34.4642" font-family="Arial" font-size="9.00" fill="#000000">health_check</text>
</g>
<!-- place_2b020927d3c6eb407223a1baa3d6ce3597a3f88d&#45;&gt;place_97d71cd74ed03f9adda9ea79841f70fd9c524e0a -->
<g id="edge6" class="edge">
<title>place_2b020927d3c6eb407223a1baa3d6ce3597a3f88d&#45;&gt;place_97d71cd74ed03f9adda9ea79841f70fd9c524e0a</title>
<path fill="none" stroke="#333333" d="M177.5075,-100.1121C198.2447,-61.8969 238.8862,-3.6642 294,-3.6642 294,-3.6642 294,-3.6642 748,-3.6642 790.784,-3.6642 838.6401,-14.6348 871.4963,-23.9251"/>
<polygon fill="#333333" stroke="#333333" points="871.3489,-25.7034 876.6376,-25.3998 872.3139,-22.339 871.3489,-25.7034"/>
<text text-anchor="middle" x="524.5" y="-6.4642" font-family="Arial" font-size="9.00" fill="#000000">health_check</text>
</g>
<!-- place_2b020927d3c6eb407223a1baa3d6ce3597a3f88d&#45;&gt;place_5f5f8758f5f22d523e531f58123b6db9161683a4 -->
<g id="edge7" class="edge">
<title>place_2b020927d3c6eb407223a1baa3d6ce3597a3f88d&#45;&gt;place_5f5f8758f5f22d523e531f58123b6db9161683a4</title>
<path fill="none" stroke="#333333" d="M197.9279,-136.0613C280.8645,-143.9201 483.7777,-163.2482 552,-170.6642 607.6264,-176.7111 621.0459,-185.6642 677,-185.6642 677,-185.6642 677,-185.6642 911.6642,-185.6642 948.2622,-185.6642 989.8943,-185.6642 1019.9419,-185.6642"/>
<polygon fill="#333333" stroke="#333333" points="1020.0373,-187.4143 1025.0373,-185.6642 1020.0372,-183.9143 1020.0373,-187.4143"/>
<text text-anchor="middle" x="606" y="-186.4642" font-family="Arial" font-size="9.00" fill="#000000">failed</text>
</g>
<!-- place_817248fb77fb5c2cef3f2c732ad257cb1fb9c5e4 -->
<g id="node4" class="node">
<title>place_817248fb77fb5c2cef3f2c732ad257cb1fb9c5e4</title>
<ellipse fill="none" stroke="#333333" cx="443" cy="-215.6642" rx="36" ry="36"/>
<text text-anchor="middle" x="443" y="-213.4642" font-family="Arial" font-size="9.00" fill="#000000">download</text>
</g>
<!-- place_9567d1547e105470e4e53c1568f07a209e82a161&#45;&gt;place_817248fb77fb5c2cef3f2c732ad257cb1fb9c5e4 -->
<g id="edge8" class="edge">
<title>place_9567d1547e105470e4e53c1568f07a209e82a161&#45;&gt;place_817248fb77fb5c2cef3f2c732ad257cb1fb9c5e4</title>
<path fill="none" stroke="#333333" d="M330.0687,-215.6642C351.6879,-215.6642 379.253,-215.6642 401.7374,-215.6642"/>
<polygon fill="#333333" stroke="#333333" points="401.747,-217.4143 406.747,-215.6642 401.7469,-213.9143 401.747,-217.4143"/>
<text text-anchor="middle" x="368.5" y="-218.4642" font-family="Arial" font-size="9.00" fill="#000000">download</text>
</g>
<!-- place_9567d1547e105470e4e53c1568f07a209e82a161&#45;&gt;place_5f5f8758f5f22d523e531f58123b6db9161683a4 -->
<g id="edge9" class="edge">
<title>place_9567d1547e105470e4e53c1568f07a209e82a161&#45;&gt;place_5f5f8758f5f22d523e531f58123b6db9161683a4</title>
<path fill="none" stroke="#333333" d="M323.5075,-236.7976C352.4793,-255.4394 398.6584,-279.6642 443,-279.6642 443,-279.6642 443,-279.6642 911.6642,-279.6642 960.1162,-279.6642 1005.7396,-243.8984 1033.5886,-216.4901"/>
<polygon fill="#333333" stroke="#333333" points="1034.9295,-217.6243 1037.2309,-212.8529 1032.4563,-215.1477 1034.9295,-217.6243"/>
<text text-anchor="middle" x="677" y="-282.4642" font-family="Arial" font-size="9.00" fill="#000000">failed</text>
</g>
<!-- place_817248fb77fb5c2cef3f2c732ad257cb1fb9c5e4&#45;&gt;place_bb73aaafa1596e5425dc514a361ad4ef658f2758 -->
<g id="edge10" class="edge">
<title>place_817248fb77fb5c2cef3f2c732ad257cb1fb9c5e4&#45;&gt;place_bb73aaafa1596e5425dc514a361ad4ef658f2758</title>
<path fill="none" stroke="#333333" d="M473.6591,-196.4788C501.321,-179.1689 541.9931,-153.7176 570.9375,-135.6052"/>
<polygon fill="#333333" stroke="#333333" points="572.1682,-136.8995 575.4784,-132.7636 570.3115,-133.9325 572.1682,-136.8995"/>
<text text-anchor="middle" x="524.5" y="-182.4642" font-family="Arial" font-size="9.00" fill="#000000">upload</text>
</g>
<!-- place_817248fb77fb5c2cef3f2c732ad257cb1fb9c5e4&#45;&gt;place_5f5f8758f5f22d523e531f58123b6db9161683a4 -->
<g id="edge11" class="edge">
<title>place_817248fb77fb5c2cef3f2c732ad257cb1fb9c5e4&#45;&gt;place_5f5f8758f5f22d523e531f58123b6db9161683a4</title>
<path fill="none" stroke="#333333" d="M478.834,-221.2154C511.794,-225.8365 562.0685,-231.6642 606,-231.6642 606,-231.6642 606,-231.6642 911.6642,-231.6642 951.4002,-231.6642 994.5557,-216.6656 1024.2693,-203.7972"/>
<polygon fill="#333333" stroke="#333333" points="1025.0471,-205.367 1028.9202,-201.7528 1023.6386,-202.1629 1025.0471,-205.367"/>
<text text-anchor="middle" x="748" y="-234.4642" font-family="Arial" font-size="9.00" fill="#000000">failed</text>
</g>
<!-- place_bb73aaafa1596e5425dc514a361ad4ef658f2758&#45;&gt;place_3a47bc9ccd1fcb4960be12d43b2dd3ff152c1784 -->
<g id="edge12" class="edge">
<title>place_bb73aaafa1596e5425dc514a361ad4ef658f2758&#45;&gt;place_3a47bc9ccd1fcb4960be12d43b2dd3ff152c1784</title>
<path fill="none" stroke="#333333" d="M641.1011,-104.271C661.3261,-98.8587 686.8252,-92.035 707.8462,-86.4096"/>
<polygon fill="#333333" stroke="#333333" points="708.4329,-88.0643 712.8105,-85.0811 707.5281,-84.6832 708.4329,-88.0643"/>
<text text-anchor="middle" x="677" y="-102.4642" font-family="Arial" font-size="9.00" fill="#000000">cleanup</text>
</g>
<!-- place_bb73aaafa1596e5425dc514a361ad4ef658f2758&#45;&gt;place_5f5f8758f5f22d523e531f58123b6db9161683a4 -->
<g id="edge13" class="edge">
<title>place_bb73aaafa1596e5425dc514a361ad4ef658f2758&#45;&gt;place_5f5f8758f5f22d523e531f58123b6db9161683a4</title>
<path fill="none" stroke="#333333" d="M641.93,-117.5112C712.417,-125.3543 873.6116,-144.7533 1007.3285,-171.6642 1011.9304,-172.5904 1016.7254,-173.6677 1021.4755,-174.8057"/>
<polygon fill="#333333" stroke="#333333" points="1021.3282,-176.5712 1026.6009,-176.0601 1022.1603,-173.1716 1021.3282,-176.5712"/>
<text text-anchor="middle" x="829.5" y="-147.4642" font-family="Arial" font-size="9.00" fill="#000000">failed</text>
</g>
<!-- place_3a47bc9ccd1fcb4960be12d43b2dd3ff152c1784&#45;&gt;place_97d71cd74ed03f9adda9ea79841f70fd9c524e0a -->
<g id="edge14" class="edge">
<title>place_3a47bc9ccd1fcb4960be12d43b2dd3ff152c1784&#45;&gt;place_97d71cd74ed03f9adda9ea79841f70fd9c524e0a</title>
<path fill="none" stroke="#333333" d="M783.1101,-67.2978C808.8409,-61.1663 843.8401,-52.8262 870.8231,-46.3964"/>
<polygon fill="#333333" stroke="#333333" points="871.3059,-48.0804 875.764,-45.219 870.4945,-44.6758 871.3059,-48.0804"/>
<text text-anchor="middle" x="829.5" y="-65.4642" font-family="Arial" font-size="9.00" fill="#000000">health_check</text>
</g>
<!-- place_3a47bc9ccd1fcb4960be12d43b2dd3ff152c1784&#45;&gt;place_5f5f8758f5f22d523e531f58123b6db9161683a4 -->
<g id="edge15" class="edge">
<title>place_3a47bc9ccd1fcb4960be12d43b2dd3ff152c1784&#45;&gt;place_5f5f8758f5f22d523e531f58123b6db9161683a4</title>
<path fill="none" stroke="#333333" d="M784.0925,-77.6018C836.2392,-81.7131 934.3894,-94.4513 1007.3285,-133.6642 1017.0814,-138.9075 1026.3159,-146.409 1034.2995,-154.0886"/>
<polygon fill="#333333" stroke="#333333" points="1033.3299,-155.5911 1038.115,-157.8638 1035.7916,-153.1031 1033.3299,-155.5911"/>
<text text-anchor="middle" x="911.6642" y="-111.4642" font-family="Arial" font-size="9.00" fill="#000000">failed</text>
</g>
<!-- place_cdfd7e1942f8f8c2c4adfd9967d4c655bbbd99ab -->
<g id="node8" class="node">
<title>place_cdfd7e1942f8f8c2c4adfd9967d4c655bbbd99ab</title>
<ellipse fill="none" stroke="#333333" cx="1061.3285" cy="-36.6642" rx="36" ry="36"/>
<text text-anchor="middle" x="1061.3285" y="-34.4642" font-family="Arial" font-size="9.00" fill="#000000">backuped</text>
</g>
<!-- place_97d71cd74ed03f9adda9ea79841f70fd9c524e0a&#45;&gt;place_cdfd7e1942f8f8c2c4adfd9967d4c655bbbd99ab -->
<g id="edge16" class="edge">
<title>place_97d71cd74ed03f9adda9ea79841f70fd9c524e0a&#45;&gt;place_cdfd7e1942f8f8c2c4adfd9967d4c655bbbd99ab</title>
<path fill="none" stroke="#333333" d="M948.6599,-36.6642C970.2971,-36.6642 997.6614,-36.6642 1020.0037,-36.6642"/>
<polygon fill="#333333" stroke="#333333" points="1020.2749,-38.4143 1025.2748,-36.6642 1020.2748,-34.9143 1020.2749,-38.4143"/>
<text text-anchor="middle" x="986.8285" y="-39.4642" font-family="Arial" font-size="9.00" fill="#000000">backuped</text>
</g>
<!-- place_97d71cd74ed03f9adda9ea79841f70fd9c524e0a&#45;&gt;place_5f5f8758f5f22d523e531f58123b6db9161683a4 -->
<g id="edge17" class="edge">
<title>place_97d71cd74ed03f9adda9ea79841f70fd9c524e0a&#45;&gt;place_5f5f8758f5f22d523e531f58123b6db9161683a4</title>
<path fill="none" stroke="#333333" d="M946.6922,-48.6358C966.3403,-56.7097 990.2563,-68.9597 1007.3285,-85.6642 1024.8235,-102.7826 1038.0434,-126.7928 1047.0232,-146.9957"/>
<polygon fill="#333333" stroke="#333333" points="1045.5028,-147.8879 1049.1011,-151.7756 1048.7126,-146.4925 1045.5028,-147.8879"/>
<text text-anchor="middle" x="986.8285" y="-88.4642" font-family="Arial" font-size="9.00" fill="#000000">failed</text>
</g>
</g>
</svg>
